<svg xmlns="http://www.w3.org/2000/svg" version="1.1" xmlns:xlink="http://www.w3.org/1999/xlink" xmlns:svgjs="http://svgjs.com/svgjs" width="1000" height="1000"><rect width="1000" height="1000" rx="500" ry="500" fill="#ffffff"></rect><g transform="matrix(1,0,0,1,0,52)"><svg xmlns="http://www.w3.org/2000/svg" version="1.1" xmlns:xlink="http://www.w3.org/1999/xlink" xmlns:svgjs="http://svgjs.com/svgjs" width="100%" height="896"><svg version="1.1" id="Layer_1" xmlns="http://www.w3.org/2000/svg" xmlns:xlink="http://www.w3.org/1999/xlink" x="0px" y="0px" width="100%" viewBox="0 0 896 896" enable-background="new 0 0 896 896" xml:space="preserve">
<path fill="#000000" opacity="1.000000" stroke="none" d="
M289.437500,897.000000 
	C290.966736,891.511536 292.582001,885.986816 292.900146,880.070801 
	C293.383087,871.089905 295.701019,862.401672 297.950470,853.738892 
	C299.055756,849.482361 297.829010,847.342407 293.316010,847.394104 
	C290.618134,847.425049 289.753845,845.336365 289.722778,843.411377 
	C289.489502,828.962708 281.129303,820.878418 268.648468,815.843445 
	C266.675476,815.047485 265.280518,813.123474 263.140228,812.720459 
	C260.934052,813.514282 261.442230,816.378967 259.019470,817.407837 
	C258.655853,814.253845 257.915222,811.325928 256.190369,808.709473 
	C255.237595,807.264282 253.190231,805.902344 254.180984,803.921753 
	C255.418869,801.447083 257.793274,803.746704 259.540497,803.246338 
	C262.871735,794.281433 258.572327,779.818665 248.369659,776.799438 
	C241.442062,774.749329 239.826813,768.247925 243.583191,762.208923 
	C245.961624,758.385132 245.701202,753.612122 246.619812,749.263611 
	C248.196564,741.799805 244.326706,736.890930 239.451843,731.828308 
	C234.588486,726.777649 229.922501,721.340210 227.337708,714.499390 
	C226.242538,711.601013 224.807175,708.723938 222.653900,706.379761 
	C222.245514,706.513184 221.840637,706.517456 221.682343,706.717224 
	C220.318939,708.437195 220.247086,712.194214 217.424637,711.493347 
	C213.880508,710.613403 217.421204,707.467468 216.609482,705.532715 
	C213.543945,698.225952 218.473740,692.688416 220.830338,686.663879 
	C223.306168,680.334534 225.977432,674.104065 230.245514,668.592346 
	C235.858917,661.343140 240.257462,653.260559 244.669281,645.228821 
	C246.136276,642.558167 246.776093,639.991333 243.344345,637.988647 
	C241.445038,636.880310 240.477341,634.799622 239.688599,632.746033 
	C235.082062,620.752197 231.955673,608.360107 229.708466,595.729614 
	C229.047745,592.016052 230.088745,588.314514 232.416168,585.928589 
	C236.450073,581.793335 235.431992,578.140564 232.526825,574.527405 
	C229.790695,571.124390 231.204544,570.248291 234.777878,569.931152 
	C233.761017,559.867371 237.917969,550.805359 240.040939,541.279114 
	C243.192017,527.139587 250.891312,514.020142 249.760254,498.890564 
	C249.618484,496.994202 250.145172,494.789368 251.066757,493.115387 
	C255.827164,484.468597 259.102051,475.236237 262.485535,466.014923 
	C263.907043,462.140656 266.307678,458.629333 268.208099,454.924774 
	C268.730865,453.905762 269.704651,452.145966 269.371796,451.807526 
	C265.066772,447.430054 269.630035,444.789124 271.525085,442.214996 
	C278.541199,432.684875 284.198944,422.230774 291.653412,413.006042 
	C293.304779,410.962524 294.554413,408.627563 294.909882,405.823273 
	C295.219147,403.383575 296.517426,401.412415 298.327301,399.471344 
	C302.391113,395.112915 306.037933,390.325897 304.608887,383.636353 
	C303.608276,378.952332 306.228851,375.939575 309.889984,373.959351 
	C323.336884,366.686157 331.086212,354.662994 336.900330,341.260986 
	C339.833893,334.498810 343.954956,329.365570 350.507721,326.118713 
	C351.064606,325.842743 351.509125,325.339966 352.343536,324.672424 
	C348.452332,321.285889 343.809448,324.195587 340.176819,322.774353 
	C339.037903,321.296600 339.366791,319.725647 340.033112,318.788239 
	C346.029785,310.351562 344.565674,300.512634 345.597290,291.103638 
	C347.067413,277.695648 347.060974,264.238251 347.698700,250.801346 
	C347.890625,246.757126 345.488098,243.505432 345.719879,239.669815 
	C346.080750,233.698029 346.652527,227.735855 346.881714,221.759903 
	C347.255585,212.010132 350.460846,202.871490 352.647125,193.508743 
	C353.366180,190.429443 354.763611,187.950943 358.078888,186.360809 
	C359.785553,189.032837 362.225067,188.443756 364.941162,187.914566 
	C371.779022,186.582275 378.685089,185.600143 385.976776,184.410248 
	C384.831024,177.037384 387.690338,171.010757 392.284424,165.761108 
	C393.641266,164.210617 395.242645,162.111984 399.082611,162.931503 
	C396.143524,166.720642 393.615448,170.224640 394.566254,175.335861 
	C397.814026,169.769684 402.838867,166.359573 406.476990,161.526352 
	C411.207825,155.241592 419.221710,153.496048 425.955963,150.081970 
	C428.263611,148.912048 430.090820,147.690887 431.713562,145.659714 
	C437.272705,138.701248 443.338226,132.313293 452.684967,130.555389 
	C455.529999,130.020294 458.381439,129.175873 462.365814,130.967194 
	C456.677826,133.591782 451.004089,134.280334 446.880035,139.205032 
	C453.211090,139.163712 458.516235,136.530426 464.393921,135.690109 
	C463.783203,138.773911 461.202148,138.610718 459.585266,140.266022 
	C459.587585,141.701675 462.864532,143.523239 459.718079,145.280167 
	C458.026276,146.224838 455.968353,146.851089 455.224670,149.620422 
	C460.649994,148.247131 463.188019,141.603851 469.095184,142.356155 
	C469.813080,143.223450 469.628784,143.770584 469.177460,144.352509 
	C468.004364,145.865021 465.686218,147.314728 467.098419,149.408142 
	C468.609863,151.648651 471.116394,150.013550 473.133392,149.695023 
	C474.195190,149.527344 475.076630,148.421509 476.147736,148.060516 
	C477.690460,147.540588 480.252594,146.445389 480.815094,147.647644 
	C482.857971,152.013809 489.726868,151.369553 489.785736,157.164673 
	C493.719055,156.927917 496.659363,153.880615 500.416351,154.632294 
	C500.532379,155.206100 500.729340,155.566742 500.638550,155.826965 
	C499.823761,158.162537 496.120667,159.402710 497.012817,161.969177 
	C498.283752,165.625092 500.347717,169.106445 503.172638,171.961563 
	C503.983002,172.780594 505.354523,173.493301 505.523132,174.425720 
	C506.630463,180.551071 511.289490,179.920609 515.531250,179.772568 
	C520.950134,179.583435 526.041443,181.238663 531.260010,182.165482 
	C533.073608,182.487595 533.994751,183.338654 534.606934,185.628220 
	C535.734802,189.846405 537.721863,193.790054 541.119812,197.120468 
	C543.893372,199.838882 546.028015,203.178177 544.223267,208.160614 
	C541.165527,216.602402 542.275208,225.870102 540.311157,234.620316 
	C538.150818,244.245239 538.318787,254.053314 538.774414,263.818298 
	C539.055664,269.845551 538.361206,275.801056 537.448303,281.644989 
	C535.744446,292.552643 535.728088,303.522888 535.078796,314.473602 
	C534.881653,317.797211 535.503967,319.865417 539.605408,319.654907 
	C541.656067,319.549622 543.754150,320.571503 545.963318,320.625275 
	C554.849609,320.841461 554.844482,320.898926 558.205444,312.543976 
	C558.571289,311.634583 558.847900,310.601807 560.525024,310.490082 
	C562.114319,313.671051 559.947754,316.463776 558.903320,319.031921 
	C557.119202,323.418732 557.650574,326.242615 562.142273,328.351624 
	C564.953979,329.671814 566.537170,332.401215 567.459656,335.335724 
	C569.804993,342.796631 575.474060,347.821777 580.461731,353.358093 
	C582.751648,355.899841 586.186829,355.830231 589.021484,357.137543 
	C597.558777,361.074829 602.145508,368.803986 607.471008,375.824036 
	C608.628662,377.350128 607.810242,378.744904 606.054749,379.280182 
	C603.766724,379.977966 603.071167,381.656097 602.821960,383.730957 
	C604.528564,384.894501 606.067688,386.159241 607.789673,387.082886 
	C618.936829,393.062042 620.280579,404.252258 622.233887,414.866364 
	C624.200562,425.552979 628.783752,435.382294 631.518677,445.703827 
	C634.089966,455.407471 636.584595,465.269501 638.286255,475.240875 
	C639.099792,480.008148 640.426453,484.631470 642.151489,489.147095 
	C643.129517,491.707184 644.182068,494.157928 649.219299,493.950714 
	C643.045593,498.976105 646.454224,503.212738 647.974182,507.667542 
	C649.950745,513.460449 651.076233,519.571594 651.203796,525.613037 
	C651.453064,537.423706 652.764099,549.089478 654.462219,560.738892 
	C654.702148,562.384827 655.161804,564.259583 657.342468,564.179321 
	C661.083557,564.041809 661.233582,566.731873 660.477173,568.858032 
	C659.052246,572.863464 660.625549,576.264526 661.562073,580.740356 
	C662.406982,576.359558 661.849121,572.618896 663.463135,568.990295 
	C666.196472,570.061890 665.527588,572.350891 665.641174,574.088257 
	C666.011719,579.755127 665.170044,585.324280 663.889832,590.837891 
	C663.628845,591.961792 663.369324,593.127136 663.389160,594.268555 
	C663.572632,604.825562 662.091187,615.112854 658.605408,625.098450 
	C657.885803,627.159607 657.283813,628.977844 659.727722,630.743896 
	C661.424988,631.970459 660.901550,634.364197 660.389038,636.373230 
	C657.176880,648.966492 654.951050,661.667480 655.395630,674.766907 
	C655.480774,677.275757 654.144653,679.861328 653.327148,682.366821 
	C651.013062,689.458984 652.305054,696.343445 654.897827,702.961914 
	C657.631958,709.941223 657.717712,717.689209 661.455017,724.360535 
	C662.294800,725.859436 662.214600,727.563232 664.224609,728.672729 
	C666.391541,729.868958 665.488037,732.586792 665.060669,734.629761 
	C663.259644,743.239502 659.195190,750.418274 651.922424,755.719604 
	C646.782898,759.465881 640.714355,761.743103 636.267273,767.370850 
	C635.193665,764.084473 636.296753,762.300964 637.379883,761.168396 
	C641.454468,756.907288 642.364990,751.472229 643.428223,746.120850 
	C644.357361,741.444641 641.242310,736.008118 635.510925,733.513062 
	C623.258667,728.179199 610.640198,723.970581 596.990784,724.374695 
	C594.881836,724.437134 592.648499,724.235901 590.643494,726.070679 
	C592.990051,730.884460 598.126160,733.296204 601.288269,737.979736 
	C597.760986,739.346375 595.541321,737.655823 593.470276,735.843872 
	C591.090759,733.762207 588.920593,731.441223 586.541809,729.358582 
	C584.798950,727.832703 582.801270,727.773743 581.188171,729.535156 
	C579.305237,731.591003 581.086975,732.653503 582.529907,733.905945 
	C584.707397,735.795898 586.169128,737.751526 583.361023,740.552124 
	C580.922913,742.983704 581.710205,752.476379 584.780701,755.615906 
	C587.569519,758.467346 590.769226,757.004150 593.624573,755.174011 
	C595.884705,753.725281 597.103821,755.490479 598.225220,756.782166 
	C601.218323,760.229675 604.525574,762.551270 609.194519,763.859558 
	C615.215149,765.546631 618.775146,770.912537 621.518799,776.316162 
	C623.389893,780.001160 624.866760,783.987061 625.822083,788.004333 
	C626.579590,791.189453 629.196350,793.398743 629.788757,796.244019 
	C630.386902,799.116577 626.335571,801.617432 628.721924,805.413269 
	C623.906494,805.614685 622.143250,807.959351 621.869202,811.707642 
	C627.637695,813.602356 633.155884,811.362549 635.016357,806.267761 
	C637.181885,800.337585 638.412231,794.749451 635.677856,788.113342 
	C629.729614,773.677246 626.542236,758.139954 618.453247,744.519470 
	C618.027710,743.802856 617.793579,742.979858 618.703857,742.065918 
	C621.290894,741.855347 621.542786,744.275818 622.391968,745.837708 
	C628.720398,757.478271 632.232117,770.196045 636.383179,782.670959 
	C637.090637,784.797058 637.478882,787.224243 640.376465,788.638306 
	C644.410217,784.237793 644.405823,777.803406 647.997009,773.184082 
	C652.381531,779.130371 652.381531,779.130371 652.166504,783.459778 
	C647.165161,785.563354 641.151245,796.261536 642.136902,802.219788 
	C642.690491,805.566101 641.104614,808.410156 641.059448,811.549255 
	C641.038208,813.030334 639.746094,813.400452 638.600525,813.596680 
	C630.365173,815.007324 623.231873,818.840454 616.457336,823.507080 
	C616.122498,823.737732 615.530579,823.595154 615.192322,823.617493 
	C613.485657,822.412476 615.743835,821.069397 614.799500,819.860657 
	C613.087463,819.431946 611.617920,820.353027 611.156311,821.681702 
	C608.903503,828.166870 602.206116,828.403076 597.519836,831.224792 
	C594.091797,833.288879 595.096069,836.352783 593.359131,839.405151 
	C590.630005,839.405151 587.509399,839.385193 584.389221,839.410767 
	C581.200806,839.436829 578.298401,840.731201 575.181702,841.773315 
	C573.882263,838.404663 576.605591,836.021362 576.790405,833.076782 
	C577.388611,823.546387 575.876465,814.225769 575.042114,804.807251 
	C573.517090,787.592773 569.365723,770.925720 565.506836,754.186768 
	C564.430115,749.515930 562.747314,744.984802 561.370361,740.480469 
	C559.622437,739.716248 558.250854,742.742371 556.751282,740.736145 
	C555.395081,738.921753 556.895447,737.398499 557.426636,735.680298 
	C560.977722,724.193726 565.481201,713.109680 571.107239,702.493591 
	C572.221924,700.390198 570.484863,699.072998 570.190674,697.182007 
	C573.311951,693.745605 577.853455,693.943481 582.042725,693.015930 
	C582.980347,688.615479 579.859314,685.540100 578.347107,682.375488 
	C575.086731,675.552307 575.533447,668.457886 575.026062,661.413696 
	C574.639832,656.052246 573.372620,651.368896 568.510254,648.338928 
	C568.118591,648.094849 567.636780,647.708679 567.546326,647.309448 
	C563.657288,630.141235 555.511780,614.139832 553.587646,596.430664 
	C553.446106,595.127563 552.996948,593.853821 552.648560,592.578003 
	C551.452148,588.197815 549.098267,583.997009 552.248718,579.287842 
	C553.197266,577.869934 552.709412,575.384216 552.623962,573.398621 
	C551.991089,558.687683 553.382324,544.166687 556.551514,529.801819 
	C556.760559,528.854309 556.651184,527.755005 557.907837,527.268677 
	C560.525940,527.732422 558.605896,530.056763 559.749756,531.659058 
	C560.685974,529.628906 561.474976,527.767334 562.397034,525.974243 
	C562.964722,524.870361 563.882568,524.012939 565.220825,524.769287 
	C566.692993,525.601379 566.756042,527.118469 565.891174,528.223145 
	C558.806763,537.272583 559.956787,548.224609 558.730408,558.622742 
	C557.797424,566.533142 557.126831,574.480164 555.966736,582.355957 
	C555.221436,587.415527 555.494141,592.142395 557.095581,597.056519 
	C559.782532,605.301514 563.123840,613.279175 566.156738,621.382080 
	C567.295898,624.425598 568.911438,626.978821 571.858948,628.960754 
	C577.957703,621.602905 573.309448,612.654724 575.566589,604.039612 
	C575.346741,602.777222 573.016052,604.067139 571.440735,601.874756 
	C577.735474,597.108765 577.644836,589.270325 578.669312,581.103027 
	C581.461243,583.880554 579.251465,586.626221 582.054810,588.558960 
	C590.158997,578.955872 599.081848,569.897461 598.264832,555.544678 
	C601.875549,561.151367 599.216614,567.138245 599.903381,573.283508 
	C604.277527,571.011353 601.830627,565.856506 604.996338,563.098267 
	C607.077820,565.334045 606.492737,567.639404 605.619995,569.665222 
	C601.809082,578.510620 598.626465,587.736023 591.375793,594.630798 
	C589.906433,596.028076 589.006287,597.798523 588.105103,599.607666 
	C587.270935,601.282593 586.969788,603.693298 584.334778,603.699158 
	C581.781128,603.704895 582.833069,600.682495 580.615540,599.350403 
	C578.263977,607.077576 579.985657,614.547424 579.421143,621.665527 
	C582.459656,623.094971 583.902283,621.309143 585.480469,620.290894 
	C597.827759,612.324951 608.503601,602.164673 620.407043,593.613342 
	C623.957275,591.062927 623.828125,587.269714 623.587585,583.638184 
	C622.744263,570.909424 625.976196,559.270264 632.561096,548.472900 
	C633.458130,547.002014 633.812256,544.913452 636.362488,544.723145 
	C637.689209,546.746399 636.039917,548.194763 635.134460,549.451050 
	C626.317871,561.685120 625.690063,576.006531 625.785278,590.079895 
	C625.824219,595.843628 624.780579,597.541870 619.482361,598.167053 
	C617.459351,598.405945 615.579895,600.583435 613.804443,602.078613 
	C603.598694,610.672791 593.065125,618.831970 581.931152,626.191406 
	C579.312439,627.922302 578.183289,630.076294 578.295654,633.276917 
	C578.540527,640.250244 578.414612,647.235596 578.557800,654.213623 
	C578.691650,660.735046 582.036499,663.110840 588.761902,662.207703 
	C603.695679,660.202332 617.248718,654.371887 630.527161,647.665466 
	C632.057312,646.892639 633.470703,645.314880 636.753479,646.788391 
	C628.549744,652.685120 619.815430,655.766968 611.301025,659.284729 
	C602.625305,662.869141 593.402832,664.091553 584.015503,665.349182 
	C583.884888,669.927124 589.144653,672.223572 588.140015,677.166138 
	C584.492859,675.315308 584.014771,671.217712 581.181580,669.170166 
	C579.562744,676.547607 580.674683,681.557617 586.092773,687.239197 
	C589.947144,691.281006 590.501526,695.042847 587.350647,699.652405 
	C586.310852,701.173645 585.094299,702.984192 586.150940,706.211609 
	C596.371521,700.044861 607.183838,697.223022 619.118896,700.506836 
	C604.630310,701.788330 594.663696,710.719177 583.889832,719.636414 
	C587.103882,721.832214 589.797791,721.673462 592.387878,721.624756 
	C598.391541,721.511902 604.356384,721.779236 610.295532,722.709106 
	C614.053162,723.297424 617.495544,725.573853 621.268188,721.079163 
	C623.952881,717.880615 635.619690,721.449463 639.387573,724.336304 
	C648.650146,731.433044 646.967651,740.653870 645.307678,750.054749 
	C645.010315,751.738831 643.472351,753.765320 645.727783,754.981262 
	C647.431580,755.899658 648.909363,754.333557 650.158630,753.364929 
	C657.381226,747.765259 662.574036,741.401917 659.432068,731.249756 
	C658.237549,727.390259 659.263245,723.184631 653.625427,721.272583 
	C650.502869,720.213501 649.086609,715.443909 649.723389,711.638977 
	C651.302490,702.204590 649.143127,693.269287 646.934692,684.261902 
	C646.352844,681.888916 646.493958,679.338745 646.272095,676.470032 
	C652.297668,676.116516 652.767944,672.119873 652.841370,667.385803 
	C652.939026,661.090637 653.277283,654.772644 654.643433,648.572632 
	C654.880493,647.496582 655.416443,646.302551 653.582336,644.625549 
	C643.928955,668.859802 627.205688,685.809326 602.994751,695.567261 
	C602.295227,692.648315 604.108398,692.415039 605.368774,691.819946 
	C626.635498,681.778259 642.079651,666.192322 650.622253,644.116455 
	C651.668335,641.413269 653.078064,640.407043 655.694580,641.747986 
	C657.243164,636.708984 657.239136,636.508850 655.491516,632.826233 
	C651.779358,636.786255 647.484863,639.677795 642.227722,641.643494 
	C642.005005,639.156433 643.518616,638.720825 644.412292,637.844177 
	C647.504639,634.810730 650.658875,631.930420 650.621765,626.969604 
	C650.610779,625.508057 651.872681,623.920959 652.825745,622.587585 
	C657.943970,615.427124 659.720215,607.651489 657.630859,599.014709 
	C656.686829,595.112122 656.699646,591.105469 656.694275,587.098999 
	C656.687317,581.918213 656.555725,576.567200 654.205688,571.926025 
	C648.612244,560.879333 648.716614,548.881165 647.661560,537.064514 
	C646.652161,525.759583 643.598328,514.912109 640.365540,504.125488 
	C639.296387,500.558136 636.453064,501.420013 633.808167,502.775452 
	C627.985474,505.759460 623.687744,510.821228 618.158020,514.169678 
	C610.608093,518.741516 602.992432,523.207397 595.340698,527.607056 
	C593.045044,528.927002 592.129944,530.733215 591.083069,533.201660 
	C585.710083,545.871155 584.702026,559.688660 580.196350,572.541748 
	C579.036743,575.849670 578.107910,579.532959 573.861694,581.297852 
	C573.329285,577.397827 577.260620,574.920959 576.345642,571.401733 
	C574.126648,570.536560 573.397522,573.893677 571.075867,572.691711 
	C569.485779,570.712280 571.560486,569.176147 572.265686,567.554321 
	C574.169861,563.175720 574.882385,558.879333 573.971191,554.012756 
	C568.858704,526.706604 565.366882,499.207886 566.705139,471.352570 
	C567.314880,458.661469 567.791931,445.911499 570.556213,433.412231 
	C570.897034,431.870972 571.174744,430.420044 572.846313,429.916779 
	C573.700317,429.659637 574.465210,430.155396 574.952026,430.918640 
	C576.140015,432.781158 574.608765,433.537018 573.520752,434.547150 
	C571.674622,436.261078 572.831909,438.664246 572.306702,440.727081 
	C571.357239,444.456390 571.122498,448.367645 570.472900,453.040466 
	C577.206848,449.584503 571.914795,440.967804 578.147705,438.373688 
	C579.751953,439.228912 579.511841,440.384796 579.174744,441.531158 
	C578.189209,444.883148 577.395996,448.312317 576.133972,451.558289 
	C573.194763,459.117950 571.967590,466.822601 572.250793,474.981140 
	C572.649414,486.465240 572.382019,497.973602 572.327271,509.471222 
	C572.316772,511.676086 572.504578,513.850647 573.363159,515.831604 
	C574.770752,519.079163 575.341064,521.581421 573.177368,525.319580 
	C571.164124,528.797852 573.001648,533.331604 577.051392,535.959351 
	C579.324890,534.876099 580.209045,533.129395 580.558838,530.828674 
	C581.330811,525.750183 582.979675,520.704102 583.016174,515.635742 
	C583.091675,505.167633 586.288635,495.429901 588.427979,485.388367 
	C590.943542,473.581329 591.607605,461.395142 594.794434,449.671997 
	C595.656555,446.500549 596.286072,443.223694 598.297058,440.535278 
	C604.103821,442.414185 604.425110,443.428253 601.549866,448.584991 
	C595.591919,459.270294 593.401550,470.967377 592.935425,483.003174 
	C592.669617,489.865448 590.238525,496.303925 589.763916,503.144806 
	C589.364624,508.901489 589.908997,514.755432 588.420288,520.448730 
	C588.092712,521.701355 588.370178,523.133301 590.161255,524.381042 
	C596.629272,522.065613 602.410522,517.850464 608.124329,513.725708 
	C616.089050,507.976105 623.660217,501.669189 632.693420,497.573242 
	C635.406921,496.342865 636.297668,494.330475 635.866943,491.521271 
	C635.269409,487.624207 633.769043,483.793457 635.503174,479.759888 
	C636.018127,478.562225 634.994934,477.686890 633.726990,477.208588 
	C632.344116,476.686890 630.970947,476.026581 630.142334,474.067505 
	C633.560730,473.348633 633.560059,471.007599 632.733765,468.370667 
	C630.992493,462.813843 629.258850,457.250763 625.385254,452.605896 
	C624.164734,459.083313 628.481628,464.784027 627.882874,471.109467 
	C625.256653,471.145294 625.402954,469.368317 625.162231,468.273987 
	C622.528442,456.298859 619.192749,444.512299 617.237671,432.342224 
	C614.893799,417.751587 609.347595,404.200409 599.721802,392.602753 
	C595.518005,387.537781 590.913635,385.404694 584.855225,387.799408 
	C578.557617,390.288696 571.946960,390.805267 565.524902,392.393860 
	C554.850586,395.034393 544.263550,397.885742 534.451599,403.035248 
	C532.973206,403.811127 531.549744,404.515656 530.563904,406.018494 
	C520.796326,420.907959 510.008453,435.158661 502.329529,451.351746 
	C501.726868,452.622559 501.223694,454.138855 499.059509,454.231384 
	C498.607422,451.404999 500.216949,449.363464 501.281311,447.235687 
	C506.058716,437.684601 512.061584,428.851379 517.586243,419.739105 
	C519.006531,417.396515 519.458862,415.345123 517.339722,413.123901 
	C511.675140,421.417786 502.890289,425.406464 495.084015,430.455017 
	C489.058563,434.351868 484.407593,438.284180 485.332886,446.177765 
	C485.800964,450.170990 484.488373,454.160797 484.603394,458.040009 
	C484.929688,469.042297 482.733582,479.920990 483.421051,490.902161 
	C483.765533,496.404053 483.860840,501.860840 482.614471,507.299103 
	C481.933533,510.270447 482.354614,512.689026 486.459137,512.345093 
	C487.817535,512.231262 489.013275,513.060913 489.084564,513.576965 
	C484.389374,525.543274 479.773956,536.433105 485.556610,549.009338 
	C480.204803,548.580322 476.340820,550.829285 472.413208,554.375610 
	C470.949799,546.905151 473.491516,540.027161 472.609955,533.262756 
	C469.271118,531.667969 468.691895,536.116516 465.905090,535.891174 
	C464.828827,533.865784 466.296539,532.546814 467.312042,531.162720 
	C469.617950,528.020020 471.879913,524.917847 469.966644,520.679260 
	C469.452545,519.540405 469.668732,518.064270 470.706940,517.488953 
	C477.256317,513.860229 475.799103,507.419373 475.850006,501.903442 
	C475.944946,491.611450 475.192566,481.310913 476.642151,471.053589 
	C477.488586,465.064301 474.740570,459.269867 475.683563,453.265808 
	C475.859375,452.146637 475.116028,451.363098 474.125854,450.957947 
	C469.311279,448.987793 464.553436,447.279236 459.383636,450.188812 
	C455.631287,452.300629 451.881714,454.838989 446.989014,454.253998 
	C446.797607,451.322632 448.090363,449.707275 450.098328,448.242035 
	C446.169769,447.353119 442.850769,446.552704 442.983582,441.703003 
	C443.032379,439.920868 440.626068,439.614105 439.224854,438.802063 
	C436.190674,437.043793 432.572754,436.036346 430.306610,431.597534 
	C435.841919,432.636505 438.986786,437.357056 444.696594,437.174286 
	C443.724274,423.402496 431.708832,415.582245 427.750885,403.729614 
	C426.668091,409.084229 432.073883,411.601929 433.147491,416.260651 
	C430.352936,417.268860 429.565063,415.295074 428.597504,413.955627 
	C425.554474,409.742859 423.687286,404.905365 421.450012,400.258942 
	C418.535217,394.205475 415.130585,388.867523 408.218628,386.138031 
	C404.392365,384.627075 401.412750,380.972046 397.639191,377.953735 
	C400.250763,375.782562 400.484100,373.270081 399.701813,370.236877 
	C405.774353,374.636169 409.006012,381.427917 414.544495,386.209503 
	C420.641083,391.472961 428.535675,388.525482 435.080170,391.788727 
	C432.600281,395.141693 428.861694,391.800934 426.330444,394.508759 
	C435.684845,403.566101 441.654175,415.105042 449.706757,425.486603 
	C452.236603,423.640472 454.391296,421.616669 454.392914,418.973907 
	C454.397949,410.623169 459.621674,405.471985 465.766357,401.916260 
	C477.443756,395.159027 484.329163,384.054871 492.824677,374.399139 
	C497.065186,369.579529 502.158417,365.465942 505.114716,359.505829 
	C505.679138,358.367889 507.967560,358.157074 509.356689,357.341553 
	C512.460510,355.519379 513.804810,353.461975 511.415436,349.760040 
	C509.450531,346.715820 507.618011,344.004517 502.664886,342.876038 
	C506.586456,349.781616 508.181793,355.981628 499.458893,360.158508 
	C496.191315,358.603851 494.938507,353.739380 491.313873,350.737762 
	C486.864380,355.094330 490.213593,362.087341 486.306366,366.605255 
	C484.020142,365.048553 485.203949,363.548859 485.361969,362.205841 
	C486.175140,355.293549 487.268860,348.403168 487.761383,341.469421 
	C487.971619,338.509644 488.012512,334.863342 483.415314,334.376129 
	C480.920502,334.111694 479.386383,334.911041 478.329346,337.284729 
	C476.922577,340.443695 475.155609,343.442291 473.551697,346.493958 
	C470.067017,345.892914 469.545685,344.232910 471.180054,341.559814 
	C472.046875,340.142090 473.046661,338.741821 473.570404,337.192993 
	C474.381714,334.793823 473.783905,332.850800 470.872070,332.449890 
	C461.834412,331.205566 452.672363,331.687805 442.486816,329.812439 
	C445.810211,336.110596 451.135681,339.599060 453.414978,345.272034 
	C446.237488,341.294098 442.666534,333.274506 435.705475,329.390503 
	C433.703766,330.116821 434.288605,332.243195 432.654419,333.319366 
	C430.310547,333.154022 427.604797,333.272491 426.824402,329.755981 
	C426.379669,327.752045 424.921722,327.889435 423.298096,328.050568 
	C421.534729,328.225555 420.315063,328.869812 420.462341,330.745697 
	C420.782471,334.823975 418.618286,338.666290 420.774261,343.099335 
	C422.911407,347.493652 420.299194,352.550293 419.854340,357.315521 
	C419.669800,359.292358 417.979828,359.897583 416.079285,359.064667 
	C414.798248,357.290039 416.310669,355.497467 415.947021,353.499268 
	C412.990356,352.502045 410.520508,352.214111 410.037598,356.449768 
	C409.716644,359.264832 407.408813,360.162781 405.315430,359.697693 
	C401.177246,358.778381 399.282318,361.319275 397.933411,364.129242 
	C396.133545,367.878601 393.535828,369.718597 389.432098,369.389954 
	C388.621613,371.607788 390.385956,372.488159 391.323334,373.723572 
	C392.209137,374.891083 395.048767,375.667328 393.110535,377.467865 
	C391.124023,379.313324 389.973328,376.675720 388.936676,375.414368 
	C385.133942,370.787445 381.465698,366.050018 377.743530,361.356842 
	C375.780029,358.881134 373.835663,356.383789 370.936615,355.071259 
	C371.934509,347.183167 367.198303,340.439972 360.209808,339.633545 
	C359.338806,337.292023 360.572052,336.153198 362.652924,335.789612 
	C366.897156,335.048065 370.970154,333.348419 375.408508,333.639282 
	C377.155701,333.753784 379.095306,333.902252 380.236115,331.970398 
	C373.409882,326.027252 363.806244,323.837341 357.843140,327.009918 
	C360.501251,331.391754 358.906555,333.176666 354.019165,334.011200 
	C343.052704,335.883759 339.768494,345.091064 336.898621,353.916779 
	C334.072144,362.609039 330.479065,370.331940 321.907623,374.729187 
	C320.557739,375.421631 319.267792,376.008026 317.734497,376.227417 
	C311.316956,377.145569 308.757080,380.483582 308.908142,388.249298 
	C313.489655,385.921631 318.098755,384.288300 322.634064,382.560577 
	C326.757843,380.989594 329.493103,380.941040 333.181183,383.946167 
	C337.760406,387.677460 343.619690,389.578339 349.843872,391.591583 
	C348.306946,388.679382 344.705444,388.367188 343.998962,385.133057 
	C346.296570,383.713318 347.728424,385.455750 349.291016,386.384155 
	C355.589417,390.126251 361.815979,393.993378 368.182648,397.614655 
	C371.191742,399.326233 374.309357,400.740234 378.002960,400.910675 
	C380.577209,401.029480 382.742310,402.615967 384.840637,404.547607 
	C390.529785,409.784729 399.288696,414.316711 406.832275,411.676025 
	C408.510590,411.088531 409.310822,410.145325 409.579376,408.549744 
	C410.222565,404.728394 413.270203,403.438660 416.199554,404.079926 
	C419.497284,404.801819 422.289124,406.082123 423.695251,410.711578 
	C426.118408,418.689362 425.329468,426.979584 427.729248,434.871796 
	C430.035858,442.457764 427.898193,450.019348 426.886200,457.696136 
	C425.211273,470.401794 421.551270,483.088623 424.290833,496.128052 
	C424.391968,496.609344 424.435852,497.147034 424.332458,497.620422 
	C422.252075,507.143860 426.829559,515.646667 428.351593,524.620361 
	C428.737915,526.898132 430.789825,527.138672 431.746185,528.555786 
	C431.799866,530.902710 429.962616,531.053162 428.443604,531.639832 
	C422.188385,534.055664 421.588959,535.156860 422.787659,541.730164 
	C423.903870,547.851196 421.290710,552.892273 415.769257,554.882141 
	C414.245483,551.683899 417.342133,548.964539 416.693665,545.849182 
	C416.228210,543.613220 417.372192,540.812439 415.838074,539.029724 
	C409.909210,532.140503 414.366211,523.381165 411.376923,516.020752 
	C411.223816,515.643799 411.387604,514.854065 411.687836,514.618652 
	C418.749512,509.081177 415.542877,500.742523 416.168518,494.088867 
	C417.626282,478.585083 418.967316,462.957001 418.693939,447.290131 
	C418.620544,443.083130 417.460205,440.071564 414.158081,437.404022 
	C409.633545,433.749084 405.517303,429.591400 401.181641,425.698669 
	C399.211731,423.929993 397.346191,422.076294 394.839355,420.918304 
	C391.352905,419.307770 387.740326,417.631866 388.631805,412.552490 
	C388.854431,411.284149 387.712982,410.554047 386.076599,410.561920 
	C384.848511,420.456146 384.336273,430.067169 389.628510,439.138855 
	C392.138672,443.441589 394.078308,448.080566 396.212219,452.597595 
	C396.963928,454.188904 398.084015,455.776184 396.994904,458.060791 
	C392.979706,455.245544 393.193573,449.929382 389.575745,446.623352 
	C390.125519,454.412628 394.249329,461.090546 395.570526,469.027954 
	C392.236694,467.961090 392.362030,465.802338 391.790009,464.229431 
	C387.977112,453.745026 384.886200,443.083527 383.393768,431.964142 
	C382.960907,428.739105 381.054688,425.739319 380.177155,422.539337 
	C379.140594,418.759521 376.710327,415.259369 379.626251,410.853485 
	C381.318176,408.297028 378.928650,405.678619 375.986664,404.964050 
	C364.085083,402.073242 353.238525,396.538605 341.997070,391.941498 
	C328.817841,386.551971 317.140442,391.799103 306.077209,398.824097 
	C305.292969,399.322113 304.249115,400.424011 304.334473,401.121765 
	C305.168671,407.941498 299.867706,411.684998 296.674347,416.346771 
	C286.046112,431.862274 278.650757,448.878204 272.428802,466.504791 
	C269.992310,473.407288 267.213837,480.189026 264.701599,486.737854 
	C264.473450,489.048340 267.447998,488.304749 267.333832,490.153748 
	C261.553589,501.856110 259.146271,514.624695 255.285919,526.318726 
	C255.979218,528.677673 258.164001,527.128479 258.832153,528.987000 
	C258.711090,529.349060 258.566589,529.979614 258.298706,530.552307 
	C254.676773,538.296082 251.041046,546.033447 247.401199,553.768799 
	C245.886185,556.988525 245.082382,560.330078 245.307648,563.926941 
	C245.456436,566.302795 244.983307,568.189941 242.673447,569.875244 
	C239.631241,572.094849 240.316330,576.260376 239.190613,579.515747 
	C237.118027,585.509277 235.295593,591.558228 237.395966,597.965637 
	C238.197098,600.409607 237.961426,602.861755 241.048721,604.754028 
	C244.172501,606.668640 242.995850,611.540161 243.213654,614.924194 
	C243.673035,622.061707 246.301498,628.348511 249.991180,633.934448 
	C252.839874,638.247192 252.628113,642.789062 254.260895,646.884338 
	C251.778778,648.511658 251.871002,645.857788 250.535263,645.670776 
	C250.350174,646.036438 250.088348,646.416687 249.955048,646.837524 
	C247.702362,653.950195 244.259888,660.164429 238.263733,665.002319 
	C235.562164,667.182007 235.783005,671.423767 234.940109,674.578979 
	C232.421021,684.008850 231.136642,693.769897 229.421890,703.410828 
	C229.286316,704.172974 229.549866,705.006226 229.631714,705.845093 
	C240.526367,703.716553 244.451263,713.925781 252.203690,717.808655 
	C254.351547,716.613281 254.423035,714.349915 254.620102,711.999695 
	C255.229019,704.738220 255.967941,697.487366 256.687469,690.235474 
	C256.854736,688.549683 257.118805,686.468689 259.346405,686.801514 
	C261.544281,687.129944 261.120972,689.278748 261.004395,690.907349 
	C260.845795,693.123474 259.465057,695.394531 261.549377,697.821777 
	C264.470123,695.205078 265.087128,691.406433 266.989532,688.400635 
	C267.792572,687.131836 268.438477,685.698059 270.252167,685.683655 
	C271.210480,685.676086 271.810394,686.267578 272.051910,687.122314 
	C272.580902,688.994446 271.254669,689.550598 269.962585,690.498901 
	C267.028107,692.652710 266.110535,696.225830 264.637695,699.360474 
	C262.528198,703.850037 260.555267,708.403625 258.519287,712.927856 
	C254.235001,722.448120 255.868179,726.805176 265.420685,730.792542 
	C264.552216,732.999329 262.104034,732.704163 260.936035,733.902710 
	C258.804443,733.487000 258.072266,731.210693 256.047607,731.117676 
	C255.753357,731.268433 255.248886,731.374878 255.210541,731.572021 
	C253.574051,739.984070 249.504776,747.652161 247.815292,756.066589 
	C246.942200,760.415039 247.018219,764.320984 250.234253,767.658813 
	C253.536499,771.085876 255.004425,776.408264 260.746521,777.380005 
	C262.199127,777.625854 262.207306,779.662170 262.537506,781.175903 
	C263.915283,787.491272 262.464447,794.248413 265.464569,800.273438 
	C266.659363,802.672852 263.548004,803.108276 263.563507,805.541077 
	C268.466370,809.315491 273.358459,813.666443 279.294739,816.388794 
	C281.713806,814.695251 278.511871,812.766541 280.180603,811.063049 
	C282.162994,810.255066 282.368500,813.071472 284.578827,813.357605 
	C291.281433,809.629395 296.990204,803.702759 303.506653,798.885254 
	C308.734070,795.020752 313.709839,790.843018 319.680115,788.109192 
	C321.916473,787.085144 323.662292,785.875793 322.830475,782.810852 
	C322.107422,780.146851 323.461304,777.992981 325.462830,776.209229 
	C328.679138,776.884094 326.942078,780.842041 329.332855,782.030823 
	C329.640747,781.928711 330.181000,781.850891 330.190186,781.732178 
	C331.325989,766.982544 338.793152,753.966003 341.665710,739.683105 
	C344.358582,726.293579 347.273712,713.100647 343.527588,699.263672 
	C342.001556,693.626953 342.104156,687.244751 342.843536,681.375305 
	C343.795380,673.819214 341.146759,666.675476 341.469971,659.383606 
	C341.913239,649.382751 338.171204,641.765320 331.363525,634.753113 
	C324.424835,627.606018 319.517975,619.088318 318.523987,608.813293 
	C318.333466,606.843689 317.758575,604.837585 319.997498,602.591675 
	C322.363892,605.775269 325.820435,607.612915 324.885620,612.874390 
	C324.018707,617.753601 327.014404,622.217957 329.369629,626.331421 
	C331.918365,630.782837 335.334412,634.737610 338.799957,639.496277 
	C339.699219,638.132446 340.171967,637.742554 340.204529,637.318848 
	C341.350586,622.394836 343.233917,607.036926 335.934235,593.370789 
	C331.816315,585.661438 333.052643,577.846008 331.368866,570.186218 
	C330.626343,566.808411 329.873230,563.432861 329.058441,559.756165 
	C327.153625,562.248901 330.355713,565.071411 327.244751,567.193115 
	C326.047546,547.212219 319.734131,527.719238 321.947937,506.162628 
	C327.105255,510.804474 323.356140,515.771118 324.633820,520.251099 
	C328.720520,517.299133 324.318695,512.398315 328.179688,509.360718 
	C332.143402,512.286987 335.947632,515.284363 338.035156,520.282532 
	C335.140900,521.168396 334.787231,518.002869 331.692505,518.397705 
	C330.647186,538.051147 337.426666,556.713745 341.360870,575.654175 
	C338.921692,576.155151 338.340759,575.304688 337.697266,574.536377 
	C337.066986,573.783813 336.404907,573.057922 335.010681,571.471191 
	C335.587952,581.766663 338.346954,590.419739 341.301483,599.124817 
	C343.944946,598.175171 342.340820,594.753174 345.826019,594.419128 
	C344.810791,601.515015 346.067230,608.414001 346.219543,615.388245 
	C346.530396,629.620361 344.553070,643.845276 346.412018,658.094177 
	C347.096649,663.341858 346.651184,668.727783 346.930511,674.039612 
	C347.468048,684.262939 356.701691,690.124634 365.930542,686.100037 
	C369.015869,688.141479 368.790253,691.401062 367.002136,693.469482 
	C361.788666,699.500366 364.583160,706.005920 364.934753,712.437683 
	C365.145599,716.295288 367.546906,720.027527 365.644897,724.569275 
	C362.211060,721.096619 359.525299,717.791199 360.195282,712.920044 
	C360.607941,709.919800 359.997620,706.885193 360.263000,703.985596 
	C360.943176,696.553894 356.593689,693.170959 350.436615,690.345154 
	C347.897491,697.374634 350.568970,704.182251 350.860321,710.977600 
	C351.048859,715.375427 351.670258,719.374756 349.620605,723.953308 
	C348.012543,727.545349 349.097382,732.574463 348.517059,736.950562 
	C347.949677,741.229187 348.237518,746.315979 345.372650,749.278564 
	C340.074432,754.757324 338.294952,761.616150 335.901489,768.251953 
	C334.226196,772.896790 332.149689,777.814514 334.887817,783.277954 
	C338.757751,781.356567 337.703705,777.337280 339.463318,774.965271 
	C338.561615,773.365662 337.457886,775.826965 336.644653,774.032959 
	C336.648895,774.013184 336.651031,773.507202 336.858459,773.107910 
	C343.510620,760.303223 353.372345,749.765381 361.631256,738.094299 
	C362.695770,736.589966 363.933655,735.246826 366.056244,735.229797 
	C367.678436,735.216736 368.901886,734.494873 369.396515,732.757019 
	C368.134918,731.454651 364.989349,732.783264 365.082916,729.141174 
	C370.010101,727.354248 375.370880,728.083435 381.416016,726.922058 
	C379.011963,730.847595 375.611389,732.086365 373.110687,734.284119 
	C366.487793,740.104553 360.358093,745.923157 356.820984,754.531738 
	C355.054413,758.831238 351.349762,762.733215 348.637970,766.910583 
	C346.239990,770.604614 346.865356,773.656433 349.210602,776.961731 
	C353.269623,782.682434 357.740173,788.044434 362.518158,793.170837 
	C363.682770,794.420349 365.559540,795.354980 365.051331,798.386414 
	C359.534302,795.644165 356.935852,790.136841 352.198761,786.287720 
	C352.457062,791.112122 356.198090,793.674927 356.676666,797.776428 
	C348.548920,794.273621 347.992035,785.419617 344.391754,778.973267 
	C341.953339,779.297180 341.987976,781.150330 341.259369,782.331543 
	C340.109985,784.195007 339.850494,786.552063 336.392639,786.079346 
	C334.678925,785.845032 331.750336,787.636902 331.787537,789.902039 
	C331.834381,792.751465 332.458801,796.124817 335.651215,797.430115 
	C337.574554,798.216492 339.392670,798.997070 340.524017,800.684387 
	C349.134918,813.527344 362.489807,819.850830 375.844910,825.872070 
	C397.149902,835.477661 419.700653,841.631775 441.913940,848.702576 
	C460.980164,854.771606 480.508789,858.775208 500.187347,862.177063 
	C503.590363,862.765320 506.506561,863.766968 508.542267,867.369324 
	C511.945099,873.390991 513.473206,873.249329 518.218262,868.120728 
	C523.060120,870.592163 522.456177,876.044678 524.927307,880.280701 
	C517.689453,883.170593 512.608276,887.902771 512.079712,896.606689 
	C510.285645,897.000000 508.571289,897.000000 506.509644,896.704346 
	C505.873474,892.088196 508.202789,888.790161 510.490540,885.506042 
	C513.305176,881.465515 513.458496,877.942566 509.089478,874.762268 
	C507.371338,873.511658 505.435486,871.936279 504.709076,870.075378 
	C503.136963,866.047913 500.194214,864.895203 496.356995,864.217529 
	C456.059692,857.099976 417.106018,845.208496 379.125977,830.193970 
	C363.635376,824.070190 348.483856,816.880432 338.398682,802.522278 
	C338.022705,801.987000 337.354401,801.720520 337.178375,801.804626 
	C334.580841,803.290222 336.809906,806.023376 334.372314,807.676941 
	C330.626068,804.422302 329.362976,799.669434 327.335083,795.479919 
	C324.671082,789.976135 322.279846,789.163025 317.653839,793.304565 
	C310.199310,799.978210 303.292480,807.196472 297.276581,815.236938 
	C295.133362,818.101379 295.100891,820.546082 296.769745,823.900452 
	C299.988007,830.369263 305.936554,834.381409 309.618713,840.054077 
	C305.790466,839.335083 302.357269,838.573364 298.870758,837.799866 
	C298.350891,844.217346 300.740753,848.777100 305.706604,852.059631 
	C308.843872,848.870483 308.843872,848.870483 310.227539,839.745483 
	C311.461212,838.633118 312.311523,837.393066 313.470276,836.937317 
	C323.516235,832.986206 330.507507,825.734985 336.015961,816.724976 
	C336.857941,815.347839 338.067596,813.699707 340.281067,814.185120 
	C341.690399,818.172974 333.911682,820.332642 338.738556,824.427734 
	C297.038239,863.372498 300.837006,871.577087 296.000000,897.000000 
	C293.958344,897.000000 291.916656,897.000000 289.437500,897.000000 
M531.678955,238.780930 
	C533.427795,232.401978 535.027100,225.977036 536.969727,219.657669 
	C538.722473,213.956131 536.819641,208.028656 538.354858,202.325653 
	C538.541992,201.630722 537.658630,200.484467 537.025330,199.763504 
	C535.359924,197.867599 533.815125,195.887436 532.981812,193.504410 
	C530.445740,186.251724 524.541748,184.511215 517.830200,184.233276 
	C511.505676,183.971375 505.162811,184.103714 498.843781,183.766937 
	C463.988983,181.909256 429.302612,183.379761 394.806000,188.807678 
	C383.983887,190.510513 372.856628,189.764282 362.224579,193.280472 
	C359.193420,194.282944 357.425049,195.557755 356.215393,198.435623 
	C350.428162,212.203445 350.074768,226.874008 350.959290,241.200500 
	C351.467072,249.425186 351.015411,257.634705 350.909882,265.705872 
	C350.707764,281.169250 351.857178,296.604004 351.283508,312.050079 
	C351.207611,314.093292 351.720245,316.033173 354.146545,315.807404 
	C363.305054,314.955231 372.112823,318.496796 381.390137,317.395813 
	C390.637115,316.298462 400.271881,316.698029 409.143402,319.119659 
	C417.714050,321.459137 426.378967,322.181488 434.973328,323.774780 
	C439.744476,324.659302 444.531860,323.650024 449.173340,324.178406 
	C456.566895,325.020081 463.822052,327.035980 471.159302,328.431244 
	C474.780182,329.119843 477.749542,328.426788 478.942291,324.225067 
	C479.334320,322.844025 479.478546,320.798889 481.787231,320.784485 
	C482.724670,322.449402 482.137146,324.086700 481.982330,325.722107 
	C481.844543,327.177246 481.362366,328.927582 483.522186,329.318848 
	C485.509277,329.678772 486.476410,328.460480 487.230286,326.741058 
	C487.837311,325.356628 486.990997,323.284851 489.279449,322.418304 
	C490.774078,324.139069 490.203949,327.486053 493.603790,327.722473 
	C501.209564,328.251312 508.799042,329.011230 516.398315,329.639038 
	C518.527161,329.814911 520.489075,329.454376 521.118408,326.987061 
	C521.945251,323.745544 523.773315,322.111481 527.776123,323.495209 
	C526.809692,320.460266 527.664734,318.345093 528.781555,316.321442 
	C531.804688,310.843658 531.240967,304.730438 530.366272,299.172394 
	C529.660950,294.691132 528.751770,289.980499 529.784485,285.981903 
	C532.324219,276.148438 531.453918,266.766266 528.880676,257.258820 
	C528.682739,256.527374 528.900208,255.576004 529.196533,254.835724 
	C531.151184,249.952499 531.329712,244.796646 531.678955,238.780930 
M478.753845,396.363800 
	C478.083740,399.999786 476.036041,403.096344 473.155426,404.916412 
	C463.663422,410.913788 462.132202,421.826141 456.788300,430.357819 
	C456.502777,430.813690 456.582153,431.723480 456.837524,432.256165 
	C458.506866,435.738586 460.368896,439.198090 464.301331,440.516968 
	C466.474915,441.245911 475.504486,436.894623 475.875061,434.670532 
	C477.085907,427.403900 479.364746,420.096527 477.549744,412.672699 
	C476.082794,406.672485 476.402100,405.230286 482.156067,403.384186 
	C484.476105,402.639801 487.072388,402.545563 489.544647,402.534576 
	C493.524323,402.516815 494.497833,404.163269 492.266937,407.346954 
	C490.715790,409.560608 490.421295,411.908295 490.209869,414.398376 
	C490.002075,416.844849 490.242615,419.313110 488.596130,421.546906 
	C487.580627,422.924652 487.644470,424.903046 489.064087,426.131134 
	C490.477722,427.354065 491.887512,426.190979 493.150208,425.420746 
	C495.852173,423.772583 498.547241,422.111145 501.201935,420.388641 
	C502.302490,419.674561 503.443207,418.951538 503.496155,417.352173 
	C503.821564,407.527008 510.526825,402.789886 518.376892,399.261566 
	C526.869263,395.444458 535.510071,391.951782 544.135071,388.437805 
	C549.342468,386.316162 554.763184,383.957062 560.076172,383.093140 
	C569.835205,381.506256 579.909424,381.857727 590.196289,381.385406 
	C589.936951,377.566681 594.018127,377.334381 596.588135,375.404205 
	C591.676025,371.421722 587.028748,367.654114 582.381714,363.886200 
	C581.181824,362.913330 580.009949,362.368530 578.286499,362.762787 
	C571.133972,364.399017 566.208313,361.723999 563.619080,354.799469 
	C563.512634,354.514679 562.856262,354.435486 562.200989,354.148956 
	C560.952637,360.284943 566.058533,363.104767 569.227966,367.329895 
	C563.593323,366.773590 560.625732,363.634247 559.579468,358.234131 
	C558.452148,352.415924 559.920288,346.625763 559.602661,340.815125 
	C559.256165,334.476257 552.582092,328.659027 547.441040,331.031982 
	C544.983582,332.166290 542.932495,332.169861 539.967468,331.610992 
	C541.304993,334.945831 540.029236,336.838226 537.936462,338.819946 
	C536.067810,340.589478 534.463257,342.958191 533.600830,345.369629 
	C532.901367,347.325378 531.815002,348.317596 530.231445,349.290497 
	C520.550598,355.238281 511.897919,362.559479 503.090698,369.677734 
	C500.289154,371.942017 498.183838,374.452789 498.850037,377.955109 
	C489.512573,381.273010 484.613525,388.835236 478.753845,396.363800 
M417.634552,181.957565 
	C423.269745,181.544296 428.906464,181.150970 434.539825,180.714096 
	C452.793976,179.298431 471.107849,179.628555 489.381531,178.804199 
	C491.915649,178.689880 495.295654,179.667450 496.235474,176.269440 
	C497.235168,172.654999 497.079865,168.873962 494.338470,165.761673 
	C491.843689,166.769470 492.392731,171.700424 488.253296,169.690979 
	C487.267212,166.891235 490.331207,164.868118 489.742523,162.135437 
	C485.938965,165.733978 480.519714,165.539291 476.094147,168.061996 
	C476.446014,166.468704 476.797882,164.875412 477.208649,163.015289 
	C475.755310,162.463531 474.539795,161.358826 473.219025,158.853546 
	C473.499786,166.403885 470.364441,165.476532 466.218750,162.425491 
	C465.255310,166.946106 463.700226,170.565063 460.611359,173.263000 
	C459.710175,174.050140 458.737000,174.889603 457.569763,173.835953 
	C456.653503,173.008789 456.259644,171.838730 456.787994,170.660568 
	C457.189209,169.765930 457.796112,168.931427 458.443268,168.184341 
	C463.046997,162.869873 460.951843,156.577606 461.975067,149.833755 
	C455.815826,155.032211 452.707428,155.489929 448.396637,152.493729 
	C445.514954,153.962250 446.426514,157.961868 443.533661,160.108383 
	C441.790161,156.959961 441.082306,154.341614 442.846375,151.354752 
	C444.372162,148.771225 447.088928,146.911163 447.966614,143.622681 
	C442.779144,143.527893 439.834503,149.887772 434.609467,147.022232 
	C430.302643,153.239700 430.425385,153.811050 429.733673,162.052597 
	C429.479340,165.082993 429.690857,169.743652 424.010956,169.212067 
	C421.090942,165.929489 424.299561,160.848007 420.553101,157.431458 
	C417.885956,158.191910 416.187775,159.975174 415.310822,162.677658 
	C414.207947,166.076233 412.426697,168.327332 408.222107,166.321106 
	C406.354095,171.521301 406.212585,176.825409 407.974243,181.269043 
	C409.225250,184.424652 413.733337,181.126694 417.634552,181.957565 
M607.532898,818.039490 
	C612.807312,813.794434 616.075684,807.867554 620.376404,802.809204 
	C622.723145,800.049011 622.427673,797.734985 620.924561,794.693665 
	C616.197693,785.129211 608.401306,777.927246 602.190369,769.517273 
	C598.430481,764.426025 593.348511,762.058228 586.918945,760.104126 
	C588.221069,771.044250 589.432739,781.523499 590.758240,791.988342 
	C590.927429,793.323853 592.039307,794.256958 593.249451,794.964722 
	C595.837280,796.478210 596.498901,798.348572 593.883240,800.412292 
	C592.022156,801.880554 592.054504,803.709412 592.194336,805.798523 
	C592.416382,809.116211 592.748413,812.501587 592.335205,815.769958 
	C591.637817,821.285950 594.145996,824.477844 598.648743,826.652466 
	C601.568176,823.829102 604.303894,821.183350 607.532898,818.039490 
M412.590790,337.335693 
	C400.664001,336.301392 391.712585,343.319733 382.124664,348.607819 
	C381.848694,348.760071 381.643005,349.063812 381.443207,349.326355 
	C379.882782,351.376587 379.623810,353.587494 380.903809,355.828125 
	C382.111664,357.942566 384.179260,357.879974 386.193420,357.489990 
	C389.641602,356.822357 392.793457,355.795715 394.851379,352.449005 
	C396.712769,349.421875 399.064056,347.448273 403.396576,347.910492 
	C406.769043,348.270294 410.116638,346.116943 412.659454,343.633667 
	C414.343536,341.989075 415.686890,339.904663 412.590790,337.335693 
M404.013153,326.041199 
	C395.368500,324.906860 386.698547,324.259430 377.958496,324.498627 
	C388.263519,328.905884 399.340088,330.055328 409.980896,332.903992 
	C411.997375,333.443817 413.224182,332.981445 413.676392,330.885590 
	C414.136139,328.754791 413.491333,327.184875 411.211212,326.818939 
	C409.095093,326.479370 406.937500,326.397888 404.013153,326.041199 
M243.048798,541.490845 
	C240.462173,549.048950 236.808472,556.386475 237.640839,564.651367 
	C238.140060,564.785095 238.639267,564.918823 239.138489,565.052551 
	C243.428391,551.470520 247.718292,537.888489 252.008194,524.306458 
	C251.349976,524.067261 250.691772,523.828003 250.033554,523.588806 
	C249.694061,530.161682 245.577682,535.055603 243.048798,541.490845 
M564.923889,388.683685 
	C566.361328,388.388855 567.945435,388.253967 567.708069,384.916992 
	C554.743469,388.668701 542.186096,392.271118 530.787537,398.908478 
	C530.987793,399.452942 531.188049,399.997406 531.388367,400.541901 
	C542.324280,396.626129 553.260193,392.710388 564.923889,388.683685 
M268.229950,470.183777 
	C268.541504,469.251526 269.025970,468.321594 268.068268,467.091187 
	C263.628937,470.005798 262.860443,474.846863 261.508087,479.322205 
	C259.165680,487.074005 257.139374,494.931091 254.510498,502.582520 
	C253.175613,506.467804 250.797806,509.997681 252.319214,514.351685 
	C256.590424,499.464508 262.428040,485.195190 268.229950,470.183777 
M409.340424,418.323059 
	C406.884521,418.485870 404.644135,415.884216 401.320312,417.843506 
	C405.298523,421.819702 409.270935,424.896729 414.342010,426.754272 
	C413.560913,423.570496 414.502563,419.666107 409.340424,418.323059 
M494.268890,340.033386 
	C491.056793,341.059296 491.919647,343.814880 492.968018,345.231873 
	C495.263733,348.334869 498.178497,351.043365 502.717682,351.367279 
	C499.035248,348.277771 500.569489,341.818390 494.268890,340.033386 
M404.840179,182.372009 
	C403.924896,179.502457 403.009644,176.632904 401.973419,173.384155 
	C398.556824,176.270462 396.493042,179.189896 395.920258,183.376572 
	C399.018005,183.703552 401.765106,184.241013 404.840179,182.372009 
M226.882233,686.430237 
	C228.046738,683.639709 229.503174,680.925049 229.494125,676.488464 
	C224.549057,683.882507 221.903824,690.885803 220.124527,698.327026 
	C223.921143,695.526001 224.373962,690.806763 226.882233,686.430237 
M245.438477,716.072937 
	C243.255859,714.205994 241.180496,712.182678 238.274353,710.949829 
	C240.896820,718.251099 245.469894,722.627991 250.651901,722.747681 
	C250.115570,719.817566 247.639175,718.471680 245.438477,716.072937 
M273.381073,448.673706 
	C273.659912,449.251190 273.938721,449.828674 274.454102,450.896057 
	C278.032043,445.364471 278.874481,439.230011 281.410278,433.756134 
	C278.438934,437.171112 275.885895,440.811737 273.283386,444.416656 
	C272.385559,445.660370 272.377686,446.854523 273.381073,448.673706 
M224.156357,701.979248 
	C224.522110,703.344971 224.615677,704.896484 226.765274,705.484985 
	C227.455887,700.548401 228.125595,695.761292 228.795303,690.974243 
	C226.381424,694.131531 224.587921,697.415283 224.156357,701.979248 
M232.313324,716.994934 
	C234.260681,720.702026 236.229965,724.393372 239.146667,727.283997 
	C240.480682,726.684570 240.800278,725.838379 240.538147,725.047424 
	C239.077820,720.640869 235.217056,718.201843 232.194061,715.075806 
	C232.164993,715.539673 232.135910,716.003479 232.313324,716.994934 
M571.306702,360.076538 
	C572.831604,359.928955 573.717102,358.787048 572.706604,357.781006 
	C570.500061,355.584137 569.650818,351.689575 564.852661,350.725525 
	C566.627319,354.839294 567.920349,357.852295 571.306702,360.076538 
M518.102356,402.397888 
	C516.987061,403.164917 515.231567,403.309082 515.239563,405.258728 
	C517.916260,406.262451 520.386169,404.429626 523.013184,404.940826 
	C524.033142,405.139252 524.735474,404.067780 524.574951,402.907898 
	C524.401489,401.655365 523.700378,400.568024 522.368713,400.763977 
	C521.112732,400.948792 519.937683,401.683075 518.102356,402.397888 
M458.682098,441.214050 
	C456.330414,438.880646 453.925964,436.731689 450.139618,438.554047 
	C452.853729,442.781586 454.951813,443.517334 458.682098,441.214050 
M584.691040,537.003174 
	C584.691040,534.356812 584.691040,531.710449 584.691040,527.961426 
	C582.211975,533.799194 581.968689,537.186035 583.328247,541.660950 
	C585.166443,540.839539 584.407593,539.141052 584.691040,537.003174 
M593.822205,367.320435 
	C592.143921,365.609650 591.340271,362.718018 587.519226,362.784973 
	C588.687073,367.062805 592.138733,368.150787 594.783081,370.254395 
	C595.366272,368.966309 594.598328,368.442657 593.822205,367.320435 
M412.790894,430.138275 
	C411.471313,429.709961 410.572754,428.228729 408.567261,428.522430 
	C410.858307,431.229126 412.813507,433.824341 416.179901,435.017395 
	C417.968567,431.541077 415.043640,431.403107 412.790894,430.138275 
M287.600769,819.312012 
	C288.783691,817.786011 290.022583,816.283142 289.796906,814.073792 
	C288.117706,814.031433 286.877563,815.001282 286.157990,816.118164 
	C285.317810,817.422363 283.828918,819.507202 287.600769,819.312012 
M384.560181,361.713715 
	C383.383453,363.477875 384.341888,364.561798 385.864227,365.218445 
	C386.708069,365.582520 387.393219,364.865021 387.911621,364.162720 
	C388.756592,363.018127 388.362732,361.820496 387.728729,360.892517 
	C386.692688,359.375946 385.779907,360.572144 384.560181,361.713715 
M244.887039,727.693115 
	C245.559952,728.618530 246.162979,729.786987 247.600433,729.131653 
	C248.423492,728.756409 248.842911,727.872620 248.438293,727.070557 
	C247.505447,725.221252 245.959198,724.253052 243.924118,724.186340 
	C243.315292,725.587402 244.233902,726.297974 244.887039,727.693115 
z"></path>
<path fill="#000000" opacity="1.000000" stroke="none" d="
M584.463196,897.000000 
	C590.435303,884.262573 597.944519,872.139221 605.200317,859.870117 
	C606.571472,857.551575 607.781189,855.149170 611.050232,855.607910 
	C610.322632,847.074890 608.465759,845.760742 600.788269,847.985779 
	C590.088806,851.086487 579.633545,854.940674 568.830872,857.768616 
	C556.454834,861.008545 543.981079,861.741943 531.371399,860.726074 
	C526.248047,860.313232 521.024536,861.038330 515.985413,859.488586 
	C514.878296,859.148132 513.557800,859.238464 513.842224,857.082031 
	C517.485168,857.292480 521.197449,857.258362 524.836548,857.757751 
	C547.209351,860.827393 568.507935,856.358765 589.421021,848.875549 
	C593.176392,847.531860 597.002930,846.321838 600.880188,845.402405 
	C604.731812,844.489136 608.280090,843.466736 609.596802,838.678345 
	C612.515930,844.339355 615.178162,849.826416 616.192566,855.957520 
	C616.325623,856.761841 615.884338,857.504761 615.150818,858.085938 
	C605.972656,865.357178 601.279663,876.006836 594.770813,885.287537 
	C594.336914,885.906250 594.411316,886.881348 594.251099,887.681885 
	C600.144043,888.997437 596.348022,893.288696 597.001831,896.592712 
	C592.975464,897.000000 588.950928,897.000000 584.463196,897.000000 
z"></path>
<path fill="#000000" opacity="1.000000" stroke="none" d="
M561.333313,897.000000 
	C562.839111,887.495667 568.086670,879.686218 573.493591,871.963135 
	C573.577026,871.844055 574.091003,872.026428 574.967224,872.143188 
	C573.975464,881.687256 565.107178,887.385498 563.091675,896.650208 
	C562.555542,897.000000 562.111084,897.000000 561.333313,897.000000 
z"></path>
<path fill="#000000" opacity="1.000000" stroke="none" d="
M457.500305,830.495117 
	C452.539124,830.686462 448.229553,829.443909 444.093475,827.638489 
	C441.664368,826.578186 439.392090,826.071106 436.366028,828.056030 
	C442.083221,835.914978 449.648834,841.071594 458.810120,844.247864 
	C456.949890,847.011292 455.475342,845.613647 454.254578,845.282959 
	C450.324066,844.218323 447.007477,841.908081 443.863007,839.438599 
	C437.872528,834.733826 432.000122,829.878784 426.078461,825.086426 
	C424.293427,823.641846 422.770020,822.293518 424.877869,819.793762 
	C426.866760,817.435059 428.760132,815.470459 431.971680,817.635254 
	C437.124542,821.108704 442.476807,824.065613 448.836792,824.599365 
	C449.497437,824.654846 450.159027,824.698792 451.431152,824.793701 
	C448.436249,816.525146 450.318542,808.159790 449.687531,799.908020 
	C449.478668,797.176758 450.945770,794.638184 453.396851,793.203735 
	C455.819794,791.785522 457.898224,793.328613 459.774536,794.734375 
	C467.753387,800.712341 473.923492,808.348572 479.325256,816.612732 
	C484.277740,824.189575 489.579315,831.396851 497.112885,836.667114 
	C497.878265,837.202515 498.893311,837.704163 498.688232,839.310303 
	C495.734131,839.922119 493.924133,837.746826 492.014893,836.252991 
	C485.889618,831.460693 481.458099,825.201599 477.338867,818.702698 
	C472.759857,811.478333 467.261841,805.031311 460.868713,799.353455 
	C459.678131,798.296082 458.630615,796.865967 456.750214,797.079468 
	C455.412292,799.136108 457.559357,800.641113 457.217651,802.863098 
	C456.153381,803.669800 453.004944,802.332520 453.429779,805.676453 
	C454.307648,812.586548 452.131012,820.187378 457.341278,826.059021 
	C458.712891,827.604675 462.228363,826.205383 464.524841,828.668823 
	C462.112701,829.295044 459.993011,829.845337 457.500305,830.495117 
z"></path>
<path fill="#000000" opacity="1.000000" stroke="none" d="
M470.472107,620.462830 
	C465.750793,611.587646 460.813934,603.211182 457.542664,593.415222 
	C460.977295,593.728149 461.151855,596.062073 461.900421,597.659119 
	C471.548798,618.243164 483.383728,637.506653 496.575745,655.992188 
	C499.038879,659.443665 501.397003,660.204102 505.372345,658.907104 
	C518.851624,654.509521 532.880066,652.660095 546.903748,651.290833 
	C552.064392,650.786926 557.527283,651.177124 562.733887,652.473816 
	C563.979004,652.783875 565.364685,653.011841 565.778931,655.052185 
	C561.303406,655.916748 556.667480,654.004028 551.616089,655.876099 
	C556.805176,663.075012 561.347778,670.245544 562.198120,679.193054 
	C558.790466,679.350525 559.229492,677.132935 558.867859,675.757080 
	C557.319092,669.864136 554.515686,664.685364 550.899414,659.784790 
	C547.839233,655.637817 544.178650,654.777649 539.211121,655.046204 
	C532.484131,655.409973 526.774109,659.677856 520.043213,659.368896 
	C515.619629,659.165833 511.498383,660.476379 507.289825,661.400574 
	C503.539825,662.224060 502.562683,663.905579 505.103729,667.303162 
	C507.601471,670.642822 510.892273,673.534973 511.580322,678.084900 
	C495.294800,660.874634 482.390717,641.249268 470.472107,620.462830 
z"></path>
<path fill="#000000" opacity="1.000000" stroke="none" d="
M318.635254,675.294861 
	C317.055267,671.755676 313.981293,669.103027 314.915680,664.810791 
	C318.217682,664.706238 320.343597,666.650146 321.277985,668.985168 
	C322.462189,671.944519 324.462036,674.450684 325.468567,677.419006 
	C327.281342,682.764954 329.834045,687.466309 334.939392,690.398438 
	C335.566742,690.758728 335.885345,691.656738 336.471252,692.480164 
	C333.720093,694.664246 331.186249,692.524902 328.616486,692.639465 
	C326.688660,693.778137 326.652069,696.339661 324.773041,698.057678 
	C318.142670,696.856873 312.577332,692.525879 306.132050,690.451538 
	C302.968109,689.433289 299.993164,687.443237 296.784515,687.022400 
	C288.001495,685.870361 285.986145,678.686218 282.882050,672.054688 
	C290.135681,673.213989 295.640564,678.422485 302.438751,680.568359 
	C309.402557,682.766541 316.260498,685.299988 323.668396,687.860840 
	C324.713196,682.344299 320.654053,679.401672 318.635254,675.294861 
z"></path>
<path fill="#000000" opacity="1.000000" stroke="none" d="
M483.399841,659.434387 
	C482.625122,657.186768 482.003967,655.290466 481.359589,653.401978 
	C480.991455,652.323059 481.130005,651.304932 482.222961,650.891846 
	C483.389648,650.450928 483.968201,651.288391 484.376343,652.328186 
	C499.661072,691.265930 526.873840,720.921936 558.303833,747.293762 
	C559.063660,747.931274 559.867126,748.529785 560.544678,749.246216 
	C560.842651,749.561157 560.875854,750.126648 561.115845,750.833313 
	C558.691772,751.948059 557.306702,750.147766 555.955322,749.042969 
	C536.265930,732.946655 518.765137,714.773315 504.078339,693.962585 
	C496.396088,683.077148 488.920197,672.062378 483.399841,659.434387 
z"></path>
<path fill="#000000" opacity="1.000000" stroke="none" d="
M270.075806,629.918945 
	C262.458710,622.260803 253.378281,616.216492 249.180710,605.617859 
	C252.671951,604.588135 253.776382,606.209167 254.903488,607.590637 
	C260.505310,614.456848 266.919128,620.555725 273.540344,626.365906 
	C277.119751,629.506897 282.434784,630.297485 285.628448,634.319824 
	C287.123779,636.203003 289.574493,637.393372 289.780365,640.483215 
	C286.757568,641.257996 286.016388,637.206238 282.898682,637.657898 
	C284.458344,643.003357 290.692200,644.947815 292.202148,650.063477 
	C291.780273,650.474548 291.358429,650.885620 290.936584,651.296692 
	C284.069519,644.251953 277.202454,637.207275 270.075806,629.918945 
z"></path>
<path fill="#000000" opacity="1.000000" stroke="none" d="
M318.480103,709.479004 
	C313.531860,709.778992 309.374634,707.708984 304.418640,708.786377 
	C298.346130,710.106445 294.295135,713.099487 290.679871,717.535156 
	C290.272583,718.034790 289.747192,718.442261 289.250366,718.861450 
	C289.149323,718.946777 288.930481,718.892578 288.764160,718.907166 
	C288.461914,718.794128 287.953033,718.743164 287.891144,718.549500 
	C285.880798,712.254395 291.510437,709.548828 294.254333,705.603149 
	C295.985107,703.114197 298.529846,702.704468 302.105164,703.534180 
	C306.770966,704.616943 311.910095,703.672241 316.845184,703.579163 
	C322.171204,703.478699 327.272888,704.955383 332.411438,705.988037 
	C334.735168,706.455017 335.463165,709.198975 337.958374,711.895325 
	C330.656158,712.193359 324.746368,711.198730 318.480103,709.479004 
z"></path>
<path fill="#000000" opacity="1.000000" stroke="none" d="
M281.550354,529.808105 
	C279.094513,536.988586 280.706573,544.612732 277.215912,552.674683 
	C275.537842,545.672913 277.089600,540.053589 277.918518,534.604187 
	C279.363068,525.107300 281.665405,515.739319 283.667450,506.329895 
	C284.117767,504.213501 284.749481,501.803986 287.188873,501.410889 
	C289.422363,501.050934 290.610779,503.129669 291.761597,504.760193 
	C295.851868,510.555481 297.287170,517.560730 300.375671,523.822815 
	C301.779877,526.669983 304.090118,529.208435 304.494202,533.995850 
	C295.987640,526.150024 295.609039,515.277893 289.804657,506.938477 
	C287.735474,509.181641 288.323059,511.680237 287.744934,513.771667 
	C286.868835,516.940918 286.672852,520.199280 283.604218,522.490845 
	C281.473419,524.082031 282.861267,527.285400 281.550354,529.808105 
z"></path>
<path fill="#000000" opacity="1.000000" stroke="none" d="
M390.126465,799.903320 
	C389.265656,798.557251 387.799683,797.883240 388.303497,795.936646 
	C390.862183,795.874023 393.849670,797.725037 396.167419,794.967834 
	C396.345825,794.755615 397.723358,795.309448 398.360809,795.763672 
	C402.965851,799.045166 407.649628,803.392395 409.868896,807.721008 
	C412.403076,812.663818 415.508698,817.997009 415.825623,824.675537 
	C407.334991,816.505005 398.844360,808.334473 390.126465,799.903320 
z"></path>
<path fill="#000000" opacity="1.000000" stroke="none" d="
M483.562927,764.360352 
	C478.859070,755.290588 475.175415,746.037476 467.299927,739.017151 
	C470.582611,737.412476 471.731506,739.434570 472.980591,740.731018 
	C476.595215,744.482971 479.080322,748.994385 481.254456,753.684692 
	C487.636230,767.452576 496.033997,780.006470 504.531311,792.507568 
	C505.574768,794.042725 507.503571,795.286499 506.200500,798.105957 
	C497.458527,787.839966 490.280701,776.486023 483.562927,764.360352 
z"></path>
<path fill="#000000" opacity="1.000000" stroke="none" d="
M401.461182,754.569153 
	C410.829193,767.379028 415.011871,781.904785 418.391083,796.711304 
	C419.216888,800.329651 421.243744,803.723267 420.945557,808.035767 
	C417.406891,806.870972 417.565338,803.834412 417.012482,801.568359 
	C414.922424,793.001648 412.687897,784.489380 409.792786,776.152222 
	C407.812439,770.449402 404.903290,765.231079 401.823669,760.081787 
	C400.925079,758.579285 399.461975,757.886047 398.140594,756.896790 
	C395.742126,755.101379 394.508301,752.468689 394.005280,749.104736 
	C398.242737,749.090515 399.355988,752.212097 401.461182,754.569153 
z"></path>
<path fill="#000000" opacity="1.000000" stroke="none" d="
M326.876099,724.146240 
	C328.110413,723.633057 329.052216,723.486755 330.900848,724.375427 
	C314.686584,737.806641 295.742645,745.690002 278.770874,756.803650 
	C278.824249,753.608032 281.270142,752.650391 283.174133,751.488281 
	C293.794617,745.006470 304.555969,738.755310 315.167023,732.258423 
	C319.117767,729.839600 322.791870,726.968933 326.876099,724.146240 
z"></path>
<path fill="#000000" opacity="1.000000" stroke="none" d="
M290.502991,627.375977 
	C284.044434,613.768433 279.437836,600.102478 280.410522,585.118896 
	C283.711609,604.587341 288.675323,623.362732 301.128113,639.521057 
	C295.738708,637.064453 293.534180,632.099609 290.502991,627.375977 
z"></path>
<path fill="#000000" opacity="1.000000" stroke="none" d="
M303.088989,733.139465 
	C294.778381,738.443970 286.772430,743.552307 277.716156,749.330872 
	C280.199524,743.284973 318.726196,718.896301 325.209503,719.236511 
	C317.257111,724.232971 310.325348,728.588135 303.088989,733.139465 
z"></path>
<path fill="#000000" opacity="1.000000" stroke="none" d="
M375.931793,373.690979 
	C376.761261,376.386597 376.644623,376.660126 374.568115,375.774628 
	C371.077057,374.285889 367.672821,372.547272 364.374573,370.664093 
	C359.958984,368.142944 356.799103,363.720764 351.671082,362.218903 
	C350.431396,361.855865 350.468170,360.712036 350.798584,359.742920 
	C351.218781,358.510345 352.371429,358.410583 353.245056,358.946381 
	C355.071777,360.066650 356.839691,361.319672 358.482300,362.696533 
	C363.713806,367.081482 369.187439,371.058899 375.931793,373.690979 
z"></path>
<path fill="#000000" opacity="1.000000" stroke="none" d="
M458.483032,397.354645 
	C456.706146,398.223022 455.545044,399.686371 453.676208,399.257904 
	C450.759186,391.982941 461.286072,390.023315 472.898712,392.584656 
	C468.292908,395.676697 462.799042,394.318054 458.483032,397.354645 
z"></path>
<path fill="#000000" opacity="1.000000" stroke="none" d="
M281.749268,774.772827 
	C285.678864,773.959839 288.681458,771.117920 293.941956,771.818787 
	C288.283081,776.073792 282.701447,777.214722 277.189911,778.465515 
	C273.596771,779.281067 270.141449,782.701050 266.259857,779.191223 
	C266.032898,778.986023 265.904938,778.671387 265.385162,777.883667 
	C270.749786,776.344238 276.360291,776.957031 281.749268,774.772827 
z"></path>
<path fill="#000000" opacity="1.000000" stroke="none" d="
M467.411316,371.717529 
	C465.016632,369.025116 466.389709,367.528137 468.807495,367.635254 
	C472.027283,367.777893 474.978973,367.247345 477.793182,365.923370 
	C479.215363,367.569794 478.617188,369.211456 478.598267,371.124084 
	C474.828583,370.362762 471.629730,374.510651 467.411316,371.717529 
z"></path>
<path fill="#000000" opacity="1.000000" stroke="none" d="
M527.599792,822.426331 
	C526.108643,820.650940 523.572449,820.093750 523.538513,815.675781 
	C529.008789,820.086365 533.467712,823.681519 537.926636,827.276611 
	C537.586182,827.779480 537.245728,828.282288 536.905334,828.785095 
	C533.132690,828.078735 530.792236,824.854065 527.599792,822.426331 
z"></path>
<path fill="#000000" opacity="1.000000" stroke="none" d="
M306.167297,527.826416 
	C305.343842,526.750671 304.727600,525.908203 305.629669,524.946899 
	C306.146057,524.396606 306.973419,524.293335 307.412292,524.798035 
	C309.716827,527.448425 311.926025,530.181763 314.084106,532.784668 
	C310.749237,533.054749 308.985107,529.804688 306.167297,527.826416 
z"></path>
<path fill="#000000" opacity="1.000000" stroke="none" d="
M455.408508,370.389526 
	C451.523407,371.638794 449.118134,369.296021 445.448669,366.697876 
	C450.212799,366.344543 453.293121,366.950623 455.408508,370.389526 
z"></path>
<path fill="#000000" opacity="1.000000" stroke="none" d="
M389.350586,857.248535 
	C386.878357,856.919128 387.265076,855.429932 387.742340,854.239685 
	C389.544647,849.744568 392.250610,845.840515 395.836151,842.562134 
	C396.923431,841.568054 398.263306,841.244751 399.494263,841.896301 
	C401.005280,842.696045 400.687073,844.370667 400.039154,845.395752 
	C397.216949,849.860535 396.970093,856.627380 389.350586,857.248535 
z"></path>
<path fill="#000000" opacity="1.000000" stroke="none" d="
M430.902100,219.633148 
	C432.233459,220.078400 433.328217,220.232269 434.059143,220.830597 
	C440.710052,226.275116 447.128571,225.096436 453.826355,220.720993 
	C458.834564,217.449280 464.687531,216.802414 470.579651,216.766159 
	C479.581421,216.710754 487.612457,220.228104 496.608185,223.583298 
	C491.385681,227.036179 492.167023,232.447235 490.662231,236.965652 
	C488.295349,244.072876 483.526459,248.147339 476.133270,248.461914 
	C472.322357,248.624084 468.478729,248.548706 464.675842,248.249939 
	C457.957855,247.722168 452.286438,241.480179 450.009247,232.449539 
	C448.487915,226.416397 446.889954,225.740860 440.576294,228.461761 
	C442.968689,235.342651 432.675232,250.931213 424.198547,249.333725 
	C422.270294,248.970322 420.214142,249.321777 418.218658,249.272385 
	C409.350647,249.052872 404.906586,245.693512 401.768066,237.436356 
	C400.504456,234.111908 400.578613,230.290497 397.550293,227.530090 
	C395.890717,226.017349 396.950104,224.118561 398.968445,223.192810 
	C409.078613,218.555588 419.612518,217.521515 430.902100,219.633148 
M488.841064,231.652451 
	C488.216797,227.825119 490.165405,222.636780 484.387512,221.333267 
	C475.184967,219.257080 465.927246,219.134201 456.909515,222.424454 
	C453.982452,223.492432 452.676758,225.513428 452.964752,229.011230 
	C453.723694,238.228531 459.066437,245.088226 466.521210,245.675568 
	C480.986542,246.815247 486.005585,243.829605 488.841064,231.652451 
M406.138641,240.214874 
	C410.786591,245.719406 424.229065,248.167862 430.133240,244.272247 
	C433.273407,242.200378 436.433075,239.717041 434.817841,234.986328 
	C434.582367,234.296722 434.777161,233.365616 435.014984,232.623871 
	C437.010376,226.399765 434.832916,222.927155 428.244202,222.365845 
	C424.618713,222.057007 420.951874,222.090744 417.307861,222.167511 
	C402.955383,222.469910 400.672974,225.940216 406.138641,240.214874 
z"></path>
<path fill="#000000" opacity="1.000000" stroke="none" d="
M423.815460,286.306274 
	C420.746582,283.977264 417.276978,282.291260 417.935974,276.708282 
	C434.604767,291.094788 451.753174,288.553589 469.232086,279.696259 
	C465.602722,292.085327 441.426300,295.589294 423.815460,286.306274 
z"></path>
<path fill="#000000" opacity="1.000000" stroke="none" d="
M531.176392,379.349548 
	C521.079468,381.940521 512.337402,387.485138 502.187744,388.696564 
	C503.430450,384.112213 527.029724,375.387115 536.151978,376.241302 
	C535.488464,378.741852 533.183655,378.502014 531.176392,379.349548 
z"></path>
<path fill="#000000" opacity="1.000000" stroke="none" d="
M450.930847,164.612366 
	C452.399231,163.450424 453.712585,163.606659 453.219025,165.328415 
	C452.260803,168.671356 450.617188,171.714615 446.038025,172.479675 
	C446.833374,169.064850 450.179565,167.784729 450.930847,164.612366 
z"></path>
<path fill="#000000" opacity="1.000000" stroke="none" d="
M464.108887,235.613937 
	C460.977234,235.138672 461.101318,233.580872 462.526093,231.791870 
	C466.048126,227.369385 472.839386,228.592133 475.350830,234.454315 
	C471.680176,235.127289 467.735901,233.021362 464.108887,235.613937 
z"></path>
<path fill="#000000" opacity="1.000000" stroke="none" d="
M416.534485,235.361786 
	C414.884033,235.748444 413.631744,236.157120 412.347351,236.383865 
	C411.500336,236.533371 410.733368,236.175644 410.333313,235.319641 
	C409.927460,234.451172 410.298370,233.727356 410.823303,233.066071 
	C413.754974,229.372803 422.359802,230.548141 424.436646,235.077576 
	C421.979828,236.924179 419.367340,234.577301 416.534485,235.361786 
z"></path>
</svg></svg></g></svg>