<svg version="1.1" id="Layer_1" xmlns="http://www.w3.org/2000/svg" xmlns:xlink="http://www.w3.org/1999/xlink" x="0px" y="0px"
	 width="100%" viewBox="0 0 900 900" enable-background="new 0 0 900 900" xml:space="preserve">
<path fill="#FFFFFF" opacity="1.000000" stroke="none" 
	d="
M594.000000,901.000000 
	C397.500000,901.000000 201.500000,900.987549 5.500051,901.093628 
	C1.750743,901.095642 0.905528,900.249146 0.906808,896.499939 
	C1.008266,599.500000 1.008266,302.500000 0.906808,5.500032 
	C0.905527,1.750874 1.750873,0.905528 5.500032,0.906809 
	C302.500000,1.008261 599.500000,1.008261 896.499939,0.906809 
	C900.249146,0.905528 901.094482,1.750872 901.093201,5.500031 
	C900.991760,302.500000 900.991699,599.500000 901.093201,896.499939 
	C901.094482,900.249146 900.249695,901.099182 896.499878,901.094788 
	C795.833313,900.975830 695.166687,901.000000 594.000000,901.000000 
z"/>
<path fill="#090909" opacity="1.000000" stroke="none" 
	d="
M226.044647,265.540710 
	C212.355347,268.435059 202.000961,275.262604 195.836090,287.596924 
	C191.678192,295.915833 193.151840,305.106903 198.988083,309.414886 
	C205.759155,314.412933 216.491455,313.862244 223.091629,308.070740 
	C226.494858,305.084442 229.503769,301.741608 230.766739,297.230072 
	C231.071869,296.140137 230.915253,294.584778 232.609711,295.051575 
	C233.952072,295.421387 233.780792,296.719604 233.630371,297.983032 
	C232.390732,308.396301 219.728683,318.083740 208.919739,316.811951 
	C189.655457,314.545319 180.442047,296.148132 189.768112,278.504211 
	C196.393311,265.970062 207.376068,260.068512 220.931412,257.874847 
	C237.274231,255.230133 252.579773,259.571991 267.837097,264.422913 
	C272.263428,265.830200 276.676208,267.292908 281.035339,268.893341 
	C283.182251,269.681549 284.572784,269.460480 286.126373,267.527649 
	C288.292603,264.832703 290.671143,262.127197 294.226959,261.129944 
	C296.130341,260.596130 297.999847,260.671082 298.481750,263.152130 
	C298.968262,265.656738 297.006104,265.018982 295.632751,265.342010 
	C292.574585,266.061310 290.754700,268.370514 288.489716,271.225128 
	C296.853302,273.005859 304.067749,276.756287 312.530945,276.195801 
	C317.467987,275.868866 321.889374,279.939392 327.285950,279.060242 
	C330.713867,278.501770 334.543793,279.205780 335.151337,274.214050 
	C335.261322,273.310425 336.067780,272.831085 337.013489,273.003876 
	C338.084961,273.199585 338.023529,274.131195 338.117523,274.942444 
	C338.462097,277.916199 337.385254,279.984985 334.650848,281.460205 
	C329.255798,284.370728 323.615143,283.358521 318.037048,282.695770 
	C316.074493,282.462585 314.646332,282.141449 313.421326,284.170715 
	C303.798401,300.111206 295.004303,316.497833 286.818726,333.215332 
	C286.646759,333.566620 286.797150,334.075745 286.797150,335.804474 
	C296.744904,326.367523 306.403809,318.027954 320.606995,315.311371 
	C314.887695,325.959442 309.424683,335.411072 305.473358,345.593079 
	C304.090210,349.157288 302.673126,352.750671 302.739838,356.639984 
	C302.801910,360.258575 304.827118,361.347656 308.003235,359.627716 
	C309.944244,358.576599 311.399689,356.955322 312.720184,355.227844 
	C317.185089,349.386902 320.619019,342.953552 323.800903,336.343201 
	C329.406036,324.698578 337.003143,315.143372 350.547302,312.285736 
	C355.904480,311.155426 360.802673,312.143555 364.982086,315.810791 
	C366.258667,316.930908 367.590820,318.505615 365.888733,320.015198 
	C363.886414,321.791077 363.610748,319.248413 362.800507,318.285858 
	C359.925232,314.870270 356.420807,315.157715 352.846069,316.714478 
	C348.804993,318.474274 345.631042,321.477570 342.694946,324.659668 
	C337.359283,330.442322 333.111481,336.997528 329.664703,344.056946 
	C328.722839,345.986053 327.779083,348.012756 327.405151,350.096741 
	C326.889709,352.969147 325.805786,356.501892 328.810059,358.410156 
	C331.849701,360.340851 334.498718,357.915405 336.784821,356.002777 
	C341.055664,352.429443 344.064362,347.794281 346.929962,343.111816 
	C349.441040,339.008636 351.646637,334.719177 354.011963,330.525970 
	C357.997101,323.461151 359.577698,322.786591 367.932343,324.707703 
	C364.086029,330.810699 360.604706,337.012421 357.792969,343.571655 
	C356.136047,347.436981 354.931335,351.379974 355.037262,355.621368 
	C355.068481,356.872131 354.477570,358.458618 356.083130,359.167419 
	C357.662933,359.864838 358.965179,358.979950 360.141144,358.005951 
	C362.865021,355.749786 364.869141,352.879700 366.866058,350.010681 
	C372.013458,342.615387 375.456604,334.281189 379.822327,326.455017 
	C380.956177,324.422424 382.047180,322.361694 383.274261,320.386139 
	C386.856659,314.618622 388.902771,313.920746 396.115204,316.116028 
	C392.760315,320.096954 389.819946,324.219025 387.454193,328.692078 
	C386.674927,330.165527 384.342865,331.973480 386.010010,333.376526 
	C387.864471,334.937225 388.957886,332.161743 390.102692,331.047791 
	C396.144623,325.168579 403.135498,320.746368 410.782593,317.333344 
	C412.978088,316.353394 415.290161,315.316345 418.225311,316.243103 
	C413.466431,325.242615 408.432220,333.803955 404.670715,342.990997 
	C403.036469,346.982391 401.178558,350.924408 401.028442,355.346497 
	C400.973724,356.958282 400.480347,358.893890 402.430115,359.754517 
	C404.108551,360.495331 405.685364,359.666931 407.086426,358.702942 
	C410.313354,356.482819 412.633789,353.391693 414.641937,350.142365 
	C423.376221,336.009918 430.627411,321.065369 438.422882,306.417145 
	C442.790802,298.209595 447.388275,290.118378 452.086365,282.094208 
	C455.591217,276.108063 460.328888,272.389038 467.816681,275.388336 
	C455.325623,290.180969 445.369507,306.754211 436.914825,324.272491 
	C436.554596,325.018890 436.180695,325.759369 435.844940,326.516693 
	C435.504669,327.284210 435.157898,328.153107 436.087280,328.697021 
	C436.991333,329.226135 437.552277,328.505280 438.168396,327.909180 
	C440.679382,325.479736 443.152710,323.000641 445.797058,320.722229 
	C450.290375,316.850647 455.389465,314.100708 461.374298,313.424866 
	C464.005310,313.127808 466.920258,312.783325 468.705597,315.349731 
	C470.518585,317.955902 469.756714,320.845520 468.517883,323.432068 
	C464.935211,330.912445 458.461578,334.967316 450.757233,336.654999 
	C447.222809,337.429230 445.994568,338.985992 445.635620,342.075287 
	C445.616577,342.238861 445.536987,342.394653 445.508545,342.558075 
	C444.382782,349.024139 447.468048,357.031219 451.764282,358.799744 
	C456.028290,360.554962 461.855835,357.463989 466.209137,351.316986 
	C470.137115,345.770599 472.785736,339.485168 476.249481,333.702576 
	C477.432831,334.242523 477.644043,334.988220 477.325653,335.865295 
	C474.232147,344.386322 470.194031,352.384521 463.507355,358.682159 
	C457.315552,364.513672 448.334045,365.456421 442.982330,361.145233 
	C437.368164,356.622650 435.724396,346.705750 439.394470,339.626099 
	C440.857910,336.802979 442.735016,334.913300 446.300171,334.831696 
	C451.290100,334.717468 454.984009,331.774780 458.133759,328.201965 
	C459.725311,326.396698 460.891937,324.216919 459.263885,321.870026 
	C457.763214,319.706757 455.539703,320.185944 453.370880,320.763428 
	C448.007751,322.191498 444.199249,325.958740 440.139771,329.389099 
	C430.655640,337.403412 426.175018,347.742676 425.707397,359.992737 
	C425.668091,361.022888 426.507965,362.598846 424.560577,362.619293 
	C421.921997,362.647034 419.135956,363.362000 416.683228,362.191833 
	C415.296936,361.530548 416.166290,359.852997 416.347046,358.568939 
	C416.586182,356.870331 418.737488,354.534607 417.029541,353.703522 
	C414.868195,352.651794 414.399933,355.942261 413.072357,357.196594 
	C410.404968,359.716705 407.947174,362.401276 404.132874,363.255219 
	C397.158478,364.816650 391.926331,360.240204 392.496887,353.134064 
	C393.064545,346.064026 396.625153,340.254395 400.072357,334.375153 
	C400.744141,333.229370 401.470123,332.112366 402.084412,330.936768 
	C402.758057,329.647614 403.873444,328.215820 402.461670,326.883026 
	C401.085846,325.584106 399.516846,326.558716 398.346832,327.357513 
	C391.525513,332.014526 385.955261,337.956909 381.406616,344.802765 
	C378.468781,349.224304 375.814117,353.841125 373.173309,358.451050 
	C369.933685,364.106262 367.569885,364.769836 361.785980,361.361450 
	C361.116547,360.966980 360.608307,361.338104 359.994354,361.552582 
	C351.033417,364.683075 346.881897,361.678986 346.984558,352.179291 
	C346.994812,351.229095 346.985901,350.278717 346.985901,348.088013 
	C344.400787,351.253998 342.527924,353.635620 340.553955,355.930267 
	C339.472107,357.187866 338.271637,358.356750 337.033844,359.464203 
	C333.935913,362.235870 330.415558,364.406158 326.186584,362.791809 
	C321.986694,361.188538 320.601624,357.383911 320.302979,353.142944 
	C320.250336,352.395203 320.131104,351.652130 319.940094,350.043579 
	C317.059631,353.800842 315.129517,357.280304 312.125732,359.887085 
	C307.859894,363.589050 302.791321,364.761963 298.836090,362.548126 
	C293.839935,359.751648 293.877045,355.246277 294.774078,350.347870 
	C296.040253,343.433594 300.063721,337.878204 303.368225,331.948639 
	C304.202118,330.452301 306.044281,328.722321 304.422058,327.057617 
	C302.577026,325.164307 300.624481,326.956177 299.120209,328.070312 
	C289.006653,335.560638 281.635071,345.425568 276.107025,356.529663 
	C273.396240,361.974762 269.886261,364.190918 263.634827,363.122833 
	C277.001587,335.414215 290.217041,307.758575 305.004456,280.596863 
	C299.123718,278.659088 293.346191,276.864838 287.654327,274.830841 
	C285.040497,273.896790 284.933533,276.096588 284.231720,277.281891 
	C277.507111,288.639191 272.815399,300.873566 268.958069,313.444702 
	C265.878693,323.480408 261.816467,333.091736 256.901520,342.359558 
	C245.799088,363.294800 227.844330,373.712921 204.788559,375.969208 
	C189.792343,377.436737 175.405594,375.528839 161.731888,368.348877 
	C138.089752,355.934601 139.091095,328.063934 148.284225,313.032135 
	C150.663483,309.141785 154.262177,306.326355 158.701263,304.901611 
	C159.894623,304.518616 161.500259,304.122803 162.321609,305.570496 
	C163.250717,307.208069 161.681458,307.871552 160.697144,308.685242 
	C141.284882,324.732056 142.662430,349.166534 163.771683,363.191925 
	C181.441879,374.932404 208.516830,373.492950 228.249039,359.887329 
	C238.520294,352.805115 245.625488,343.086365 251.777084,332.491791 
	C261.635773,315.512756 269.513123,297.555206 277.880341,279.839294 
	C281.423340,272.337708 281.409729,272.288361 273.308289,270.162201 
	C257.943939,266.129974 242.444885,263.352905 226.044647,265.540710 
z"/>
<path fill="#080808" opacity="1.000000" stroke="none" 
	d="
M574.615234,248.241364 
	C549.201355,256.865692 530.539185,272.710968 519.553467,296.876587 
	C515.702026,305.348846 513.113098,314.430389 515.841125,323.966064 
	C519.651917,337.286072 531.030212,343.229797 544.166443,338.879517 
	C555.901855,334.993103 568.750061,317.843506 568.983398,305.754028 
	C569.147034,297.280304 565.783936,294.232117 557.368042,295.167572 
	C556.296448,295.286713 555.201416,296.212524 554.072266,295.234772 
	C560.036560,289.150177 571.776978,291.892456 574.070801,299.846710 
	C575.124084,303.499054 574.905396,307.203552 573.732239,310.679993 
	C568.262817,326.888855 557.431152,338.072052 541.044617,343.012756 
	C524.957886,347.862946 508.303009,335.630035 506.818848,318.640747 
	C505.983215,309.075439 507.848633,300.045532 512.397095,291.676910 
	C526.516907,265.697815 548.622253,250.141998 577.022766,243.350616 
	C584.156616,241.644714 591.619202,242.251495 598.785095,244.334915 
	C610.751343,247.813965 616.888611,257.746399 615.560669,270.839661 
	C614.462341,281.668732 610.441956,291.405457 605.107605,300.707855 
	C596.513672,315.694672 587.859497,330.646698 582.743408,347.305237 
	C581.761353,350.503021 581.008118,353.714203 581.013367,357.080750 
	C581.025024,364.606537 585.999390,368.479431 593.199341,366.388031 
	C600.167908,364.363892 605.550171,359.920715 610.038025,354.435791 
	C622.945740,338.660278 631.534424,320.580292 637.963135,301.377533 
	C638.692139,299.199799 638.901489,296.705109 641.104004,295.341400 
	C642.484009,294.487000 643.947815,293.250549 645.694336,294.223694 
	C647.202820,295.064209 647.127808,296.705170 647.123413,298.220551 
	C647.107605,303.598450 645.698425,308.753387 644.543396,313.938080 
	C641.976440,325.460449 638.300232,336.662598 634.589478,347.853943 
	C630.884644,359.027832 626.537170,369.935303 620.848694,380.883392 
	C631.025269,381.109253 640.767639,381.295013 650.241943,378.686707 
	C656.848816,376.867767 661.852600,373.073547 662.496155,365.375610 
	C665.275452,369.085632 664.719177,373.054047 660.812439,377.141541 
	C655.996460,382.180359 649.612244,383.456360 643.084167,383.972351 
	C636.122620,384.522614 629.132996,384.775055 622.150330,384.967712 
	C619.675537,385.035980 617.989319,385.629730 616.341858,387.761780 
	C602.840942,405.234283 585.029114,415.773926 563.351501,419.608459 
	C555.838135,420.937500 548.363464,419.879517 541.430786,416.562256 
	C533.152649,412.601135 531.962036,404.791931 538.636658,398.414276 
	C544.442383,392.866974 551.804016,390.146301 559.310120,387.873901 
	C573.593384,383.549896 588.279175,381.926971 603.143066,381.704712 
	C613.317749,381.552521 613.430115,381.651703 617.106995,372.112732 
	C620.985046,362.051697 624.660522,351.911560 628.315735,341.766785 
	C628.801819,340.417603 630.445435,338.394714 628.465088,337.512848 
	C626.847107,336.792389 626.467346,339.278748 625.778015,340.407532 
	C619.739502,350.294678 612.905457,359.446930 602.974548,365.820007 
	C598.121765,368.934174 592.896118,370.858856 587.009338,370.705170 
	C576.154175,370.421753 569.868896,363.059967 571.269531,352.257599 
	C572.954407,339.262390 579.053711,327.985657 585.210205,316.777283 
	C591.600098,305.143921 599.181885,294.143982 603.448364,281.408905 
	C605.194031,276.198273 606.685242,270.961548 607.297791,265.470673 
	C608.584656,253.934494 602.840088,246.972046 591.266052,246.070038 
	C585.683167,245.634933 580.339966,246.752533 574.615234,248.241364 
z"/>
<path fill="#090909" opacity="1.000000" stroke="none" 
	d="
M727.721497,326.536682 
	C728.483276,325.015198 729.074524,323.826416 729.669373,322.639435 
	C734.327087,313.346100 734.327271,313.346191 744.818237,314.150726 
	C736.544250,324.443817 731.819519,336.554413 727.065308,348.648254 
	C726.884338,349.108521 726.806458,349.614166 726.718628,350.105438 
	C726.172913,353.157715 724.627808,356.848785 728.182739,358.634216 
	C731.594910,360.347961 734.083496,357.300262 736.180603,354.998993 
	C741.046143,349.659607 744.224182,343.231873 747.458679,336.847900 
	C747.987183,335.804596 748.190735,333.577179 749.764404,334.228241 
	C751.854614,335.093018 750.187805,336.831238 749.623535,337.998169 
	C746.803833,343.829468 743.977539,349.669250 740.074646,354.890442 
	C738.575134,356.896423 736.924438,358.759216 734.836914,360.194122 
	C731.397095,362.558502 727.798218,364.175720 723.685425,361.984467 
	C719.664856,359.842346 719.514954,355.911835 719.421997,352.033478 
	C719.398926,351.070648 719.554749,350.103516 719.678223,348.484619 
	C716.405640,350.660767 715.251160,353.846802 713.085449,356.128326 
	C710.174133,359.195343 707.157166,362.051697 702.855774,362.877380 
	C696.364380,364.123383 692.485718,360.239594 691.906189,351.587158 
	C690.280029,353.401489 688.941040,354.998352 687.494568,356.491150 
	C681.497742,362.680145 676.718567,363.553436 669.243958,359.510468 
	C667.809021,358.734283 666.962708,358.679871 665.792480,359.601501 
	C665.146545,360.110260 664.391052,360.501678 663.641785,360.854095 
	C658.969910,363.051392 654.098633,364.594238 649.450195,361.270538 
	C644.804810,357.948975 644.450073,352.639130 645.206177,347.687317 
	C647.240051,334.367950 654.095886,323.844788 665.184998,316.204590 
	C667.193481,314.820831 669.607910,313.818909 671.980957,313.210693 
	C679.034485,311.402954 684.199585,314.855530 685.240540,322.073883 
	C686.926208,333.762329 681.347961,342.888245 674.700012,351.698639 
	C673.462402,353.338745 669.305237,354.434875 671.949951,357.403290 
	C674.382996,360.134033 678.050964,360.087860 681.136658,358.130463 
	C685.433594,355.404633 688.515625,351.414124 690.911133,346.992157 
	C695.576904,338.379303 700.498413,329.864014 704.480042,320.936371 
	C706.996460,315.294006 710.390808,312.931885 716.339783,313.851837 
	C717.462036,314.025360 718.634155,313.876648 720.425293,313.876648 
	C711.511047,323.765228 707.339355,335.669861 701.883057,346.870789 
	C700.566040,349.574310 699.569031,352.363251 699.980225,355.478546 
	C700.538940,359.712128 703.059570,361.061188 706.484863,358.657166 
	C709.644104,356.439911 712.000366,353.373169 714.179077,350.208374 
	C719.279968,342.798706 723.452209,334.854462 727.721497,326.536682 
z"/>
<path fill="#FFFFFF" opacity="1.000000" stroke="none" 
	d="
M434.182220,331.875977 
	C432.985321,331.148621 433.742981,330.824371 434.228180,330.806519 
	C435.324432,330.766327 434.817902,331.397186 434.182220,331.875977 
z"/>
<path fill="#FFFFFF" opacity="1.000000" stroke="none" 
	d="
M385.158081,333.576019 
	C386.139374,333.953278 386.206726,334.500946 385.546875,334.865173 
	C385.273987,335.015808 384.707947,334.931793 384.438782,334.733032 
	C383.814331,334.272095 384.595306,334.040100 385.158081,333.576019 
z"/>
<path fill="#FFFFFF" opacity="1.000000" stroke="none" 
	d="
M285.507935,335.613312 
	C285.826202,334.991699 286.513123,334.035736 286.964233,335.179169 
	C287.220673,335.829163 286.341125,335.930573 285.507935,335.613312 
z"/>
<path fill="#FFFFFF" opacity="1.000000" stroke="none" 
	d="
M435.750000,329.250000 
	C435.727112,329.777252 435.435242,330.149231 435.126465,329.585510 
	C435.072937,329.487854 435.366669,329.199982 435.750000,329.250000 
z"/>
<path fill="#FFFFFF" opacity="1.000000" stroke="none" 
	d="
M418.742249,350.784119 
	C418.420319,350.785767 418.338837,350.556244 418.257324,350.326721 
	C418.499084,350.402130 418.740875,350.477539 418.742249,350.784119 
z"/>
<path fill="#FFFFFF" opacity="1.000000" stroke="none" 
	d="
M417.750000,352.750000 
	C417.222748,352.727112 416.850800,352.435303 417.414490,352.126465 
	C417.512115,352.072998 417.799988,352.366699 417.750000,352.750000 
z"/>
<path fill="#FAFAFA" opacity="1.000000" stroke="none" 
	d="
M573.242065,413.361664 
	C565.244995,415.331207 557.602905,416.821686 549.747742,415.011322 
	C546.574524,414.279999 543.479553,413.227753 542.542603,409.704224 
	C541.566467,406.033142 544.219971,403.852631 546.635254,401.850800 
	C556.794678,393.430511 568.922791,389.557037 581.625854,387.360016 
	C591.109619,385.719818 600.700806,384.759674 611.343933,385.219635 
	C601.876160,399.494751 589.171570,408.221130 573.242065,413.361664 
z"/>
<path fill="#FFFFFF" opacity="1.000000" stroke="none" 
	d="
M630.138794,335.871338 
	C629.582947,336.943970 628.870911,337.392029 628.555664,336.670380 
	C628.072266,335.563660 628.802368,334.432800 629.781616,334.061249 
	C630.430969,333.814850 630.582336,334.737366 630.138794,335.871338 
z"/>
<path fill="#F8F8F8" opacity="1.000000" stroke="none" 
	d="
M665.398438,355.096893 
	C663.713074,359.188751 660.284973,360.656830 656.631531,359.566345 
	C652.709412,358.395721 652.594421,354.462494 653.316589,351.145203 
	C655.907349,339.245178 660.676514,328.426910 670.263855,320.382416 
	C672.790833,318.262054 675.748657,316.096313 679.261353,318.123779 
	C682.551880,320.023071 682.105530,323.488220 681.882019,326.629486 
	C681.347107,334.150513 677.636353,340.438446 673.607361,347.655792 
	C672.319458,344.108704 670.356689,341.795868 667.040405,343.287598 
	C663.515503,344.873169 663.635437,348.280579 664.062500,351.502319 
	C664.211304,352.624847 664.804932,353.688446 665.398438,355.096893 
z"/>
</svg>